<svg width="1940" height="343" viewBox="0 0 1940 343" fill="none" xmlns="http://www.w3.org/2000/svg">
<g clip-path="url(#clip0_0_26)">
<rect width="1940" height="343" fill="white"/>
<rect x="-3.89996" width="80.3148" height="20.5514" rx="3" fill="#E14646" fill-opacity="0.3"/>
<path d="M3.75291 14V3.81818H7.19325C7.98871 3.81818 8.64164 3.95407 9.15206 4.22585C9.66248 4.49432 10.0403 4.86387 10.2856 5.33452C10.5308 5.80516 10.6535 6.34044 10.6535 6.94034C10.6535 7.54025 10.5308 8.07221 10.2856 8.53622C10.0403 9.00024 9.66413 9.36482 9.15703 9.62997C8.64993 9.89181 8.00197 10.0227 7.21314 10.0227H4.42905V8.90909H7.17337C7.71693 8.90909 8.15443 8.82955 8.48587 8.67045C8.82062 8.51136 9.06257 8.28598 9.21172 7.99432C9.36418 7.69934 9.44041 7.34801 9.44041 6.94034C9.44041 6.53267 9.36418 6.17637 9.21172 5.87145C9.05926 5.56652 8.81565 5.3312 8.4809 5.16548C8.14614 4.99645 7.70367 4.91193 7.15348 4.91193H4.98587V14H3.75291ZM8.54553 9.42614L11.0512 14H9.61939L7.15348 9.42614H8.54553ZM15.6686 14.1591C14.9328 14.1591 14.2981 13.9967 13.7645 13.6719C13.2342 13.3438 12.8248 12.8864 12.5365 12.2997C12.2514 11.7098 12.1089 11.0237 12.1089 10.2415C12.1089 9.45928 12.2514 8.76989 12.5365 8.1733C12.8248 7.57339 13.2259 7.10606 13.7396 6.77131C14.2566 6.43324 14.8599 6.2642 15.5493 6.2642C15.947 6.2642 16.3397 6.33049 16.7275 6.46307C17.1153 6.59564 17.4683 6.81108 17.7865 7.10938C18.1047 7.40436 18.3582 7.79545 18.5471 8.28267C18.736 8.76989 18.8305 9.36979 18.8305 10.0824V10.5795H12.9441V9.56534H17.6373C17.6373 9.13447 17.5511 8.75 17.3788 8.41193C17.2098 8.07386 16.9678 7.80705 16.6529 7.61151C16.3414 7.41596 15.9735 7.31818 15.5493 7.31818C15.0819 7.31818 14.6776 7.43419 14.3362 7.66619C13.9981 7.89489 13.7379 8.19318 13.5556 8.56108C13.3734 8.92898 13.2822 9.32339 13.2822 9.74432V10.4205C13.2822 10.9972 13.3816 11.486 13.5805 11.8871C13.7827 12.2848 14.0627 12.5881 14.4207 12.7969C14.7787 13.0024 15.1946 13.1051 15.6686 13.1051C15.9768 13.1051 16.2552 13.062 16.5038 12.9759C16.7557 12.8864 16.9728 12.7538 17.1551 12.5781C17.3374 12.3991 17.4782 12.1771 17.5777 11.9119L18.7112 12.2301C18.5919 12.6146 18.3913 12.9527 18.1096 13.2443C17.8279 13.5327 17.4799 13.758 17.0656 13.9205C16.6513 14.0795 16.1856 14.1591 15.6686 14.1591ZM23.4988 14.1591C22.8625 14.1591 22.3007 13.9983 21.8135 13.6768C21.3262 13.352 20.9451 12.8946 20.67 12.3047C20.3949 11.7114 20.2574 11.0104 20.2574 10.2017C20.2574 9.39962 20.3949 8.7036 20.67 8.11364C20.9451 7.52367 21.3279 7.06794 21.8184 6.74645C22.309 6.42495 22.8757 6.2642 23.5187 6.2642C24.0159 6.2642 24.4086 6.34706 24.697 6.51278C24.9886 6.67519 25.2107 6.8608 25.3632 7.0696C25.519 7.27509 25.6399 7.44413 25.7261 7.5767H25.8255V3.81818H26.9988V14H25.8653V12.8267H25.7261C25.6399 12.9659 25.5173 13.1416 25.3582 13.3537C25.1991 13.5625 24.9721 13.7498 24.6771 13.9155C24.3821 14.0779 23.9894 14.1591 23.4988 14.1591ZM23.6579 13.1051C24.1286 13.1051 24.5263 12.9825 24.8511 12.7372C25.1759 12.4886 25.4228 12.1456 25.5919 11.7081C25.7609 11.2673 25.8454 10.7585 25.8454 10.1818C25.8454 9.61174 25.7626 9.11293 25.5968 8.68537C25.4311 8.2545 25.1859 7.91974 24.861 7.68111C24.5362 7.43916 24.1352 7.31818 23.6579 7.31818C23.1608 7.31818 22.7465 7.44579 22.415 7.70099C22.0869 7.95289 21.84 8.29593 21.6743 8.73011C21.5119 9.16098 21.4306 9.64489 21.4306 10.1818C21.4306 10.7254 21.5135 11.2192 21.6792 11.6634C21.8483 12.1042 22.0968 12.4555 22.425 12.7173C22.7564 12.9759 23.1674 13.1051 23.6579 13.1051ZM36.5691 6.36364V7.35795H32.6118V6.36364H36.5691ZM33.7652 4.53409H34.9385V11.8125C34.9385 12.1439 34.9865 12.3925 35.0826 12.5582C35.1821 12.7206 35.308 12.83 35.4605 12.8864C35.6163 12.9394 35.7803 12.9659 35.9527 12.9659C36.0819 12.9659 36.188 12.9593 36.2708 12.946C36.3537 12.9295 36.42 12.9162 36.4697 12.9062L36.7083 13.9602C36.6288 13.9901 36.5178 14.0199 36.3752 14.0497C36.2327 14.0829 36.0521 14.0994 35.8333 14.0994C35.5019 14.0994 35.1771 14.0282 34.8589 13.8857C34.544 13.7431 34.2822 13.526 34.0734 13.2344C33.8679 12.9427 33.7652 12.5748 33.7652 12.1307V4.53409ZM40.5812 14.179C40.0973 14.179 39.6582 14.0878 39.2637 13.9055C38.8693 13.7199 38.5561 13.4531 38.3241 13.1051C38.0921 12.7538 37.9761 12.3295 37.9761 11.8324C37.9761 11.3949 38.0623 11.0402 38.2346 10.7685C38.407 10.4934 38.6373 10.2779 38.9257 10.1222C39.214 9.96638 39.5322 9.85038 39.8802 9.77415C40.2315 9.6946 40.5845 9.63163 40.9392 9.58523C41.4032 9.52557 41.7794 9.48082 42.0677 9.45099C42.3594 9.41785 42.5715 9.36316 42.7041 9.28693C42.84 9.2107 42.9079 9.07812 42.9079 8.8892V8.84943C42.9079 8.3589 42.7737 7.97775 42.5052 7.70597C42.2401 7.43419 41.8374 7.2983 41.2971 7.2983C40.737 7.2983 40.2978 7.42093 39.9797 7.66619C39.6615 7.91146 39.4377 8.1733 39.3085 8.4517L38.1949 8.05398C38.3937 7.58996 38.6589 7.22869 38.9903 6.97017C39.3251 6.70833 39.6896 6.52604 40.0841 6.4233C40.4818 6.31723 40.8729 6.2642 41.2574 6.2642C41.5026 6.2642 41.7843 6.29403 42.1025 6.35369C42.424 6.41004 42.7339 6.5277 43.0322 6.70668C43.3338 6.88565 43.5841 7.15578 43.7829 7.51705C43.9818 7.87831 44.0812 8.36222 44.0812 8.96875V14H42.9079V12.9659H42.8483C42.7687 13.1316 42.6361 13.3089 42.4505 13.4979C42.2649 13.6868 42.018 13.8475 41.7098 13.9801C41.4015 14.1127 41.0253 14.179 40.5812 14.179ZM40.7602 13.125C41.2242 13.125 41.6153 13.0339 41.9335 12.8516C42.255 12.6693 42.4969 12.4339 42.6593 12.1456C42.8251 11.8572 42.9079 11.554 42.9079 11.2358V10.1619C42.8582 10.2216 42.7488 10.2763 42.5798 10.326C42.4141 10.3724 42.2218 10.4138 42.0031 10.4503C41.7877 10.4834 41.5772 10.5133 41.3717 10.5398C41.1695 10.563 41.0055 10.5829 40.8795 10.5994C40.5746 10.6392 40.2895 10.7038 40.0244 10.7933C39.7626 10.8795 39.5504 11.0104 39.388 11.1861C39.2289 11.3584 39.1494 11.5937 39.1494 11.892C39.1494 12.2997 39.3002 12.608 39.6018 12.8168C39.9067 13.0223 40.2929 13.125 40.7602 13.125ZM49.3051 17.0227C48.7384 17.0227 48.2511 16.9498 47.8435 16.804C47.4358 16.6615 47.0961 16.4725 46.8243 16.2372C46.5558 16.0052 46.342 15.7566 46.183 15.4915L47.1176 14.8352C47.2237 14.9744 47.3579 15.1335 47.5203 15.3125C47.6827 15.4948 47.9048 15.6522 48.1865 15.7848C48.4715 15.9207 48.8444 15.9886 49.3051 15.9886C49.9216 15.9886 50.4304 15.8395 50.8314 15.5412C51.2324 15.2429 51.433 14.7756 51.433 14.1392V12.5881H51.3335C51.2473 12.7273 51.1247 12.8996 50.9656 13.1051C50.8098 13.3073 50.5845 13.4879 50.2895 13.647C49.9978 13.8028 49.6034 13.8807 49.1063 13.8807C48.4898 13.8807 47.9363 13.7348 47.4457 13.4432C46.9585 13.1515 46.5724 12.7273 46.2874 12.1705C46.0056 11.6136 45.8648 10.9375 45.8648 10.142C45.8648 9.35985 46.0023 8.67874 46.2774 8.09872C46.5525 7.51539 46.9353 7.06463 47.4259 6.74645C47.9164 6.42495 48.4831 6.2642 49.1261 6.2642C49.6233 6.2642 50.0177 6.34706 50.3094 6.51278C50.6044 6.67519 50.8297 6.8608 50.9855 7.0696C51.1446 7.27509 51.2672 7.44413 51.3534 7.5767H51.4727V6.36364H52.6063V14.2188C52.6063 14.875 52.4571 15.4086 52.1588 15.8196C51.8638 16.2339 51.4661 16.5372 50.9656 16.7294C50.4685 16.925 49.915 17.0227 49.3051 17.0227ZM49.2653 12.8267C49.736 12.8267 50.1337 12.719 50.4585 12.5036C50.7833 12.2881 51.0303 11.9782 51.1993 11.5739C51.3683 11.1695 51.4528 10.6856 51.4528 10.1222C51.4528 9.57197 51.37 9.08641 51.2043 8.66548C51.0385 8.24455 50.7933 7.91477 50.4685 7.67614C50.1437 7.4375 49.7426 7.31818 49.2653 7.31818C48.7682 7.31818 48.3539 7.44413 48.0224 7.69602C47.6943 7.94792 47.4474 8.28598 47.2817 8.71023C47.1193 9.13447 47.0381 9.60511 47.0381 10.1222C47.0381 10.6525 47.1209 11.1214 47.2866 11.5291C47.4557 11.9335 47.7043 12.2517 48.0324 12.4837C48.3638 12.7124 48.7748 12.8267 49.2653 12.8267Z" fill="#37352F"/>
<path d="M-4.00006 0H1944V343H-4.00006V0Z" fill="#CCFFE2"/>
<path fill-rule="evenodd" clip-rule="evenodd" d="M1943.55 237.165V342.999H475.378C535.532 293.689 599.914 248.213 668.418 207.173C1082.63 -40.9792 1540.57 29.3665 1943.55 237.165Z" fill="#FFECEA"/>
<path fill-rule="evenodd" clip-rule="evenodd" d="M1373.87 169.08C1373.93 113.585 1408.92 58.5252 1467.21 46.2886C1518.96 35.4249 1554.8 83.747 1584.16 124.933C1611.76 163.654 1640.07 210.579 1611.16 248.223C1579.64 289.281 1518.29 294.69 1466.96 277.572C1415.17 260.296 1373.82 220.063 1373.87 169.08Z" fill="#0018A4"/>
<path fill-rule="evenodd" clip-rule="evenodd" d="M135.668 64.0355C166.613 63.0843 197.932 81.711 205.784 114.146C212.755 142.942 186.443 163.876 163.996 181.054C142.892 197.204 117.227 213.893 95.7255 198.369C72.2754 181.438 68.1763 147.166 76.8157 118.11C85.5344 88.7876 107.239 64.9093 135.668 64.0355Z" fill="white"/>
<rect x="-4" width="1944" height="100" fill="#0018A4"/>
<path d="M-37.6435 50.11H-29.7305V50.766H-37.6435V62H-38.2995V50.766H-43.2195V62H-43.8755V33.3H-26.7785V33.956H-37.6435V38.876H-26.7785V39.532H-37.6435V44.534H-29.7305V45.19H-37.6435V50.11ZM-43.2195 39.532V44.534H-38.2995V39.532H-43.2195ZM-38.2995 45.19H-43.2195V50.11H-38.2995V45.19ZM-43.2195 33.956V38.876H-38.2995V33.956H-43.2195ZM-5.11321 40.27V62H-5.76921V55.809C-6.67121 58.146 -8.43421 60.073 -10.6892 61.18V62H-11.3452V61.508C-12.4932 61.959 -13.7232 62.205 -15.0352 62.205C-20.4882 62.205 -24.9572 57.736 -24.9572 52.283V40.27H-24.3012V52.283C-24.3012 57.367 -20.1192 61.549 -15.0352 61.549C-13.7232 61.549 -12.4932 61.262 -11.3452 60.77V54.579C-12.1242 55.809 -13.4772 56.629 -15.0352 56.629C-17.4132 56.629 -19.3812 54.661 -19.3812 52.283V40.27H-18.7252V52.283C-18.7252 54.292 -17.0442 55.973 -15.0352 55.973C-13.0262 55.973 -11.3452 54.292 -11.3452 52.283V40.27H-10.6892V60.442C-7.77821 58.884 -5.76921 55.809 -5.76921 52.283V40.27H-5.11321ZM-0.92609 62V40.27H-0.27009V46.461C0.63191 44.124 2.39491 42.197 4.64991 41.09V40.27H5.30591V40.762C6.45391 40.311 7.68391 40.065 8.99591 40.065C14.4489 40.065 18.9179 44.534 18.9179 49.987V62H18.2619V49.987C18.2619 44.903 14.0799 40.721 8.99591 40.721C7.68391 40.721 6.45391 41.008 5.30591 41.5V47.691C6.08491 46.461 7.43791 45.641 8.99591 45.641C11.3739 45.641 13.3419 47.609 13.3419 49.987V62H12.6859V49.987C12.6859 47.978 11.0049 46.297 8.99591 46.297C6.98691 46.297 5.30591 47.978 5.30591 49.987V62H4.64991V41.828C1.73891 43.386 -0.27009 46.461 -0.27009 49.987V62H-0.92609ZM33.642 45.846V46.502H32.453C29.952 46.502 27.82 48.634 27.82 51.135C27.82 53.636 29.952 55.768 32.453 55.768H33.642V56.424H32.453C29.583 56.424 27.164 54.005 27.164 51.135C27.164 48.265 29.583 45.846 32.453 45.846H33.642ZM33.642 40.926H32.453C26.836 40.926 22.244 45.518 22.244 51.135C22.244 56.752 26.836 61.344 32.453 61.344H33.642V62H32.453C26.467 62 21.588 57.121 21.588 51.135C21.588 45.149 26.467 40.27 32.453 40.27H33.642V40.926ZM39.161 40.926H35.922V40.27H39.161V33.3H39.817V40.27H44.737V33.3H45.393V40.27H48.632V40.926H45.393V45.846H48.632V46.502H45.393V62H44.737V46.502H39.817V62H39.161V46.502H35.922V45.846H39.161V40.926ZM44.737 40.926H39.817V45.846H44.737V40.926ZM51.6052 62V40.27H52.2612V62H51.6052ZM57.8372 40.27V62H57.1812V40.27H57.8372ZM57.1812 38.138V31.25H57.8372V38.138H57.1812ZM52.2612 31.25V38.138H51.6052V31.25H52.2612ZM72.1423 62.492C65.8693 62.492 60.7853 57.408 60.7853 51.135C60.7853 44.862 65.8693 39.778 72.1423 39.778C78.4153 39.778 83.4993 44.862 83.4993 51.135C83.4993 57.408 78.4153 62.492 72.1423 62.492ZM72.1423 61.836C78.0463 61.836 82.8433 57.039 82.8433 51.135C82.8433 45.231 78.0463 40.434 72.1423 40.434C66.2383 40.434 61.4413 45.231 61.4413 51.135C61.4413 57.039 66.2383 61.836 72.1423 61.836ZM72.1423 56.916C68.9443 56.916 66.3613 54.333 66.3613 51.135C66.3613 47.937 68.9443 45.354 72.1423 45.354C75.3403 45.354 77.9233 47.937 77.9233 51.135C77.9233 54.333 75.3403 56.916 72.1423 56.916ZM72.1423 56.26C74.9713 56.26 77.2673 53.964 77.2673 51.135C77.2673 48.306 74.9713 46.01 72.1423 46.01C69.3133 46.01 67.0173 48.306 67.0173 51.135C67.0173 53.964 69.3133 56.26 72.1423 56.26ZM86.4391 62V40.27H87.0951V46.461C87.9971 44.124 89.7601 42.197 92.0151 41.09V40.27H92.6711V40.762C93.8191 40.311 95.0491 40.065 96.3611 40.065C101.814 40.065 106.283 44.534 106.283 49.987V62H105.627V49.987C105.627 44.903 101.445 40.721 96.3611 40.721C95.0491 40.721 93.8191 41.008 92.6711 41.5V47.691C93.4501 46.461 94.8031 45.641 96.3611 45.641C98.7391 45.641 100.707 47.609 100.707 49.987V62H100.051V49.987C100.051 47.978 98.3701 46.297 96.3611 46.297C94.3521 46.297 92.6711 47.978 92.6711 49.987V62H92.0151V41.828C89.1041 43.386 87.0951 46.461 87.0951 49.987V62H86.4391ZM109.158 46.953C109.158 42.976 112.356 39.778 116.333 39.778C119.285 39.778 121.827 41.582 122.934 44.124L122.319 44.411C121.335 42.074 118.998 40.434 116.333 40.434C112.725 40.434 109.814 43.345 109.814 46.953C109.814 50.028 111.905 52.57 114.775 53.308L116.579 53.759C117.276 53.923 117.768 54.579 117.768 55.317C117.768 56.219 117.071 56.916 116.169 56.916C115.472 56.916 114.898 56.506 114.652 55.85L115.267 55.604C115.39 55.973 115.718 56.26 116.169 56.26C116.702 56.26 117.112 55.85 117.112 55.317C117.112 54.866 116.866 54.497 116.415 54.374L114.57 53.923C111.454 53.144 109.158 50.315 109.158 46.953ZM109.568 58.187L110.183 57.9C111.167 60.237 113.463 61.836 116.169 61.836C119.777 61.836 122.688 58.925 122.688 55.317C122.688 52.242 120.597 49.7 117.727 48.962L115.923 48.511C115.185 48.306 114.734 47.691 114.734 46.953C114.734 46.051 115.431 45.354 116.333 45.354C117.03 45.354 117.604 45.805 117.809 46.42L117.235 46.666C117.112 46.297 116.743 46.01 116.333 46.01C115.8 46.01 115.39 46.42 115.39 46.953C115.39 47.404 115.636 47.773 116.087 47.896L117.932 48.347C121.089 49.126 123.344 51.955 123.344 55.317C123.344 59.294 120.146 62.492 116.169 62.492C113.217 62.492 110.675 60.729 109.568 58.187ZM153.945 61.959L153.453 62.369L150.829 59.499C148.205 61.18 145.253 62.492 142.465 62.492C137.996 62.492 134.101 58.925 134.101 54.456C134.101 51.545 135.864 48.757 138.242 47.281L139.267 46.625L139.062 46.379C137.832 44.985 136.971 43.017 136.971 40.967C136.971 36.498 140.62 32.808 145.089 32.808C149.558 32.808 153.207 36.498 153.207 40.967C153.207 43.96 151.362 46.379 149.107 47.855L148.861 48.019L151.567 51.012C152.879 49.782 153.822 48.757 154.109 48.429L154.56 48.921C154.273 49.208 153.33 50.274 151.977 51.504L155.298 55.194C156.61 54.046 157.594 53.062 158.045 52.611L158.496 53.062C158.045 53.513 157.061 54.497 155.749 55.686L158.209 58.392L157.717 58.802L155.257 56.096C153.863 57.285 152.715 58.146 151.403 59.13L153.945 61.959ZM139.718 47.158L138.57 47.855C136.315 49.249 134.757 51.709 134.757 54.456C134.757 58.597 138.324 61.836 142.465 61.836C145.089 61.836 147.877 60.606 150.378 59.007L147.098 55.358C145.499 56.383 143.859 57.08 142.465 57.08C141.071 57.08 139.677 55.85 139.677 54.456C139.677 53.39 140.169 52.447 141.358 51.75L142.998 50.766L139.718 47.158ZM144.105 43.673L143.285 42.771C142.711 42.156 142.547 41.541 142.547 40.967C142.547 39.573 143.695 38.384 145.089 38.384C146.483 38.384 147.631 39.573 147.631 40.967C147.631 41.951 146.934 42.689 146.155 43.181L145.089 43.837L148.41 47.527L148.615 47.404C150.911 46.01 152.551 43.714 152.551 40.967C152.551 36.826 149.23 33.464 145.089 33.464C140.948 33.464 137.627 36.826 137.627 40.967C137.627 42.894 138.365 44.657 139.554 45.969L139.841 46.297L144.105 43.673ZM142.465 56.424C143.736 56.424 145.212 55.768 146.688 54.866L143.449 51.258L141.686 52.324C140.702 52.939 140.333 53.636 140.333 54.456C140.333 55.522 141.399 56.424 142.465 56.424ZM143.203 40.967C143.203 41.418 143.367 41.91 143.777 42.361L144.638 43.345L145.827 42.607C146.483 42.197 146.975 41.664 146.975 40.967C146.975 39.901 146.155 39.04 145.089 39.04C144.023 39.04 143.203 39.901 143.203 40.967ZM148.287 48.347L144.023 50.93L147.221 54.497C148.574 53.554 149.845 52.57 151.075 51.463L148.287 48.347ZM153.207 56.957C153.904 56.424 154.273 56.096 154.806 55.645L151.526 51.914C150.378 52.98 149.025 54.046 147.672 54.989L150.952 58.638C151.567 58.228 152.715 57.326 153.207 56.957ZM147.836 47.855L144.556 44.165L140.292 46.789L143.572 50.438L147.836 47.855ZM184.492 56.424H182.483C177.44 56.424 173.75 52.447 173.75 47.65C173.75 42.812 177.44 38.876 182.483 38.876H184.492V39.532H182.483C177.85 39.532 174.406 43.14 174.406 47.65C174.406 52.119 177.85 55.768 182.483 55.768H184.492V56.424ZM184.492 62H182.483C174.529 62 168.174 55.563 168.174 47.65C168.174 39.737 174.529 33.3 182.483 33.3H184.492V33.956H182.483C174.857 33.956 168.83 40.065 168.83 47.65C168.83 55.235 174.857 61.344 182.483 61.344H184.492V62ZM197.264 62.492C190.991 62.492 185.907 57.408 185.907 51.135C185.907 44.862 190.991 39.778 197.264 39.778C203.537 39.778 208.621 44.862 208.621 51.135C208.621 57.408 203.537 62.492 197.264 62.492ZM197.264 61.836C203.168 61.836 207.965 57.039 207.965 51.135C207.965 45.231 203.168 40.434 197.264 40.434C191.36 40.434 186.563 45.231 186.563 51.135C186.563 57.039 191.36 61.836 197.264 61.836ZM197.264 56.916C194.066 56.916 191.483 54.333 191.483 51.135C191.483 47.937 194.066 45.354 197.264 45.354C200.462 45.354 203.045 47.937 203.045 51.135C203.045 54.333 200.462 56.916 197.264 56.916ZM197.264 56.26C200.093 56.26 202.389 53.964 202.389 51.135C202.389 48.306 200.093 46.01 197.264 46.01C194.435 46.01 192.139 48.306 192.139 51.135C192.139 53.964 194.435 56.26 197.264 56.26ZM211.561 62V40.27H212.217V46.461C213.119 44.124 214.882 42.197 217.137 41.09V40.27H217.793V40.762C218.941 40.311 220.171 40.065 221.483 40.065C226.936 40.065 231.405 44.534 231.405 49.987V62H230.749V49.987C230.749 44.903 226.567 40.721 221.483 40.721C220.171 40.721 218.941 41.008 217.793 41.5V47.691C218.572 46.461 219.925 45.641 221.483 45.641C223.861 45.641 225.829 47.609 225.829 49.987V62H225.173V49.987C225.173 47.978 223.492 46.297 221.483 46.297C219.474 46.297 217.793 47.978 217.793 49.987V62H217.137V41.828C214.226 43.386 212.217 46.461 212.217 49.987V62H211.561ZM234.034 51.135C234.034 44.862 239.118 39.778 245.391 39.778C247.236 39.778 248.958 40.229 250.516 41.008V31.25H251.172V41.377C253.468 42.648 255.231 44.944 256.092 47.322V31.25H256.748V62H256.092V54.907C255.272 57.244 253.468 59.663 251.172 60.934V62H250.516V61.262C248.958 62.041 247.236 62.492 245.391 62.492C239.118 62.492 234.034 57.408 234.034 51.135ZM234.69 51.135C234.69 57.039 239.487 61.836 245.391 61.836C247.236 61.836 248.999 61.385 250.516 60.565V53.841C249.532 55.645 247.605 56.916 245.391 56.916C242.193 56.916 239.61 54.333 239.61 51.135C239.61 47.937 242.193 45.354 245.391 45.354C247.605 45.354 249.532 46.625 250.516 48.47V41.746C248.999 40.926 247.236 40.434 245.391 40.434C239.487 40.434 234.69 45.231 234.69 51.135ZM240.266 51.135C240.266 53.964 242.562 56.26 245.391 56.26C248.261 56.26 250.516 53.964 250.516 51.135C250.516 48.306 248.261 46.01 245.391 46.01C242.562 46.01 240.266 48.306 240.266 51.135ZM251.172 42.115V60.155C253.919 58.474 256.092 55.071 256.092 51.135C256.092 47.199 253.919 43.796 251.172 42.115ZM260.929 62V40.27H261.585V62H260.929ZM267.161 40.27V62H266.505V40.27H267.161ZM266.505 38.138V31.25H267.161V38.138H266.505ZM261.585 31.25V38.138H260.929V31.25H261.585ZM273.39 40.926H270.151V40.27H273.39V33.3H274.046V40.27H278.966V33.3H279.622V40.27H282.861V40.926H279.622V45.846H282.861V46.502H279.622V62H278.966V46.502H274.046V62H273.39V46.502H270.151V45.846H273.39V40.926ZM278.966 40.926H274.046V45.846H278.966V40.926ZM285.834 62V40.27H286.49V62H285.834ZM292.066 40.27V62H291.41V40.27H292.066ZM291.41 38.138V31.25H292.066V38.138H291.41ZM286.49 31.25V38.138H285.834V31.25H286.49ZM306.371 62.492C300.098 62.492 295.014 57.408 295.014 51.135C295.014 44.862 300.098 39.778 306.371 39.778C312.644 39.778 317.728 44.862 317.728 51.135C317.728 57.408 312.644 62.492 306.371 62.492ZM306.371 61.836C312.275 61.836 317.072 57.039 317.072 51.135C317.072 45.231 312.275 40.434 306.371 40.434C300.467 40.434 295.67 45.231 295.67 51.135C295.67 57.039 300.467 61.836 306.371 61.836ZM306.371 56.916C303.173 56.916 300.59 54.333 300.59 51.135C300.59 47.937 303.173 45.354 306.371 45.354C309.569 45.354 312.152 47.937 312.152 51.135C312.152 54.333 309.569 56.916 306.371 56.916ZM306.371 56.26C309.2 56.26 311.496 53.964 311.496 51.135C311.496 48.306 309.2 46.01 306.371 46.01C303.542 46.01 301.246 48.306 301.246 51.135C301.246 53.964 303.542 56.26 306.371 56.26ZM320.668 62V40.27H321.324V46.461C322.226 44.124 323.989 42.197 326.244 41.09V40.27H326.9V40.762C328.048 40.311 329.278 40.065 330.59 40.065C336.043 40.065 340.512 44.534 340.512 49.987V62H339.856V49.987C339.856 44.903 335.674 40.721 330.59 40.721C329.278 40.721 328.048 41.008 326.9 41.5V47.691C327.679 46.461 329.032 45.641 330.59 45.641C332.968 45.641 334.936 47.609 334.936 49.987V62H334.28V49.987C334.28 47.978 332.599 46.297 330.59 46.297C328.581 46.297 326.9 47.978 326.9 49.987V62H326.244V41.828C323.333 43.386 321.324 46.461 321.324 49.987V62H320.668ZM360.279 42.115V60.155C363.026 58.474 365.199 55.071 365.199 51.135C365.199 47.199 363.026 43.796 360.279 42.115ZM354.498 39.778C356.343 39.778 358.065 40.229 359.623 41.008V40.27H360.279V41.377C362.575 42.648 364.338 44.944 365.199 47.322V40.27H365.855V62H365.199V54.907C364.379 57.244 362.575 59.663 360.279 60.934V62H359.623V61.262C358.065 62.041 356.343 62.492 354.498 62.492C348.225 62.492 343.141 57.408 343.141 51.135C343.141 44.862 348.225 39.778 354.498 39.778ZM354.498 61.836C356.343 61.836 358.106 61.385 359.623 60.565V53.841C358.639 55.645 356.712 56.916 354.498 56.916C351.3 56.916 348.717 54.333 348.717 51.135C348.717 47.937 351.3 45.354 354.498 45.354C356.712 45.354 358.639 46.625 359.623 48.47V41.746C358.106 40.926 356.343 40.434 354.498 40.434C348.594 40.434 343.797 45.231 343.797 51.135C343.797 57.039 348.594 61.836 354.498 61.836ZM354.498 56.26C357.368 56.26 359.623 53.964 359.623 51.135C359.623 48.306 357.368 46.01 354.498 46.01C351.669 46.01 349.373 48.306 349.373 51.135C349.373 53.964 351.669 56.26 354.498 56.26ZM370.692 31.25V62H370.036V31.25H370.692ZM376.268 31.25V62H375.612V31.25H376.268ZM379.462 46.953C379.462 42.976 382.66 39.778 386.637 39.778C389.589 39.778 392.131 41.582 393.238 44.124L392.623 44.411C391.639 42.074 389.302 40.434 386.637 40.434C383.029 40.434 380.118 43.345 380.118 46.953C380.118 50.028 382.209 52.57 385.079 53.308L386.883 53.759C387.58 53.923 388.072 54.579 388.072 55.317C388.072 56.219 387.375 56.916 386.473 56.916C385.776 56.916 385.202 56.506 384.956 55.85L385.571 55.604C385.694 55.973 386.022 56.26 386.473 56.26C387.006 56.26 387.416 55.85 387.416 55.317C387.416 54.866 387.17 54.497 386.719 54.374L384.874 53.923C381.758 53.144 379.462 50.315 379.462 46.953ZM379.872 58.187L380.487 57.9C381.471 60.237 383.767 61.836 386.473 61.836C390.081 61.836 392.992 58.925 392.992 55.317C392.992 52.242 390.901 49.7 388.031 48.962L386.227 48.511C385.489 48.306 385.038 47.691 385.038 46.953C385.038 46.051 385.735 45.354 386.637 45.354C387.334 45.354 387.908 45.805 388.113 46.42L387.539 46.666C387.416 46.297 387.047 46.01 386.637 46.01C386.104 46.01 385.694 46.42 385.694 46.953C385.694 47.404 385.94 47.773 386.391 47.896L388.236 48.347C391.393 49.126 393.648 51.955 393.648 55.317C393.648 59.294 390.45 62.492 386.473 62.492C383.521 62.492 380.979 60.729 379.872 58.187ZM412.235 50.11H420.148V50.766H412.235V62H411.579V50.766H406.659V62H406.003V33.3H423.1V33.956H412.235V38.876H423.1V39.532H412.235V44.534H420.148V45.19H412.235V50.11ZM406.659 39.532V44.534H411.579V39.532H406.659ZM411.579 45.19H406.659V50.11H411.579V45.19ZM406.659 33.956V38.876H411.579V33.956H406.659ZM444.766 40.27V62H444.11V55.809C443.208 58.146 441.445 60.073 439.19 61.18V62H438.534V61.508C437.386 61.959 436.156 62.205 434.844 62.205C429.391 62.205 424.922 57.736 424.922 52.283V40.27H425.578V52.283C425.578 57.367 429.76 61.549 434.844 61.549C436.156 61.549 437.386 61.262 438.534 60.77V54.579C437.755 55.809 436.402 56.629 434.844 56.629C432.466 56.629 430.498 54.661 430.498 52.283V40.27H431.154V52.283C431.154 54.292 432.835 55.973 434.844 55.973C436.853 55.973 438.534 54.292 438.534 52.283V40.27H439.19V60.442C442.101 58.884 444.11 55.809 444.11 52.283V40.27H444.766ZM448.953 62V40.27H449.609V46.461C450.511 44.124 452.274 42.197 454.529 41.09V40.27H455.185V40.762C456.333 40.311 457.563 40.065 458.875 40.065C464.328 40.065 468.797 44.534 468.797 49.987V62H468.141V49.987C468.141 44.903 463.959 40.721 458.875 40.721C457.563 40.721 456.333 41.008 455.185 41.5V47.691C455.964 46.461 457.317 45.641 458.875 45.641C461.253 45.641 463.221 47.609 463.221 49.987V62H462.565V49.987C462.565 47.978 460.884 46.297 458.875 46.297C456.866 46.297 455.185 47.978 455.185 49.987V62H454.529V41.828C451.618 43.386 449.609 46.461 449.609 49.987V62H448.953ZM483.521 45.846V46.502H482.332C479.831 46.502 477.699 48.634 477.699 51.135C477.699 53.636 479.831 55.768 482.332 55.768H483.521V56.424H482.332C479.462 56.424 477.043 54.005 477.043 51.135C477.043 48.265 479.462 45.846 482.332 45.846H483.521ZM483.521 40.926H482.332C476.715 40.926 472.123 45.518 472.123 51.135C472.123 56.752 476.715 61.344 482.332 61.344H483.521V62H482.332C476.346 62 471.467 57.121 471.467 51.135C471.467 45.149 476.346 40.27 482.332 40.27H483.521V40.926ZM489.04 40.926H485.801V40.27H489.04V33.3H489.696V40.27H494.616V33.3H495.272V40.27H498.511V40.926H495.272V45.846H498.511V46.502H495.272V62H494.616V46.502H489.696V62H489.04V46.502H485.801V45.846H489.04V40.926ZM494.616 40.926H489.696V45.846H494.616V40.926ZM501.484 62V40.27H502.14V62H501.484ZM507.716 40.27V62H507.06V40.27H507.716ZM507.06 38.138V31.25H507.716V38.138H507.06ZM502.14 31.25V38.138H501.484V31.25H502.14ZM522.021 62.492C515.748 62.492 510.664 57.408 510.664 51.135C510.664 44.862 515.748 39.778 522.021 39.778C528.294 39.778 533.378 44.862 533.378 51.135C533.378 57.408 528.294 62.492 522.021 62.492ZM522.021 61.836C527.925 61.836 532.722 57.039 532.722 51.135C532.722 45.231 527.925 40.434 522.021 40.434C516.117 40.434 511.32 45.231 511.32 51.135C511.32 57.039 516.117 61.836 522.021 61.836ZM522.021 56.916C518.823 56.916 516.24 54.333 516.24 51.135C516.24 47.937 518.823 45.354 522.021 45.354C525.219 45.354 527.802 47.937 527.802 51.135C527.802 54.333 525.219 56.916 522.021 56.916ZM522.021 56.26C524.85 56.26 527.146 53.964 527.146 51.135C527.146 48.306 524.85 46.01 522.021 46.01C519.192 46.01 516.896 48.306 516.896 51.135C516.896 53.964 519.192 56.26 522.021 56.26ZM536.318 62V40.27H536.974V46.461C537.876 44.124 539.639 42.197 541.894 41.09V40.27H542.55V40.762C543.698 40.311 544.928 40.065 546.24 40.065C551.693 40.065 556.162 44.534 556.162 49.987V62H555.506V49.987C555.506 44.903 551.324 40.721 546.24 40.721C544.928 40.721 543.698 41.008 542.55 41.5V47.691C543.329 46.461 544.682 45.641 546.24 45.641C548.618 45.641 550.586 47.609 550.586 49.987V62H549.93V49.987C549.93 47.978 548.249 46.297 546.24 46.297C544.231 46.297 542.55 47.978 542.55 49.987V62H541.894V41.828C538.983 43.386 536.974 46.461 536.974 49.987V62H536.318ZM559.037 46.953C559.037 42.976 562.235 39.778 566.212 39.778C569.164 39.778 571.706 41.582 572.813 44.124L572.198 44.411C571.214 42.074 568.877 40.434 566.212 40.434C562.604 40.434 559.693 43.345 559.693 46.953C559.693 50.028 561.784 52.57 564.654 53.308L566.458 53.759C567.155 53.923 567.647 54.579 567.647 55.317C567.647 56.219 566.95 56.916 566.048 56.916C565.351 56.916 564.777 56.506 564.531 55.85L565.146 55.604C565.269 55.973 565.597 56.26 566.048 56.26C566.581 56.26 566.991 55.85 566.991 55.317C566.991 54.866 566.745 54.497 566.294 54.374L564.449 53.923C561.333 53.144 559.037 50.315 559.037 46.953ZM559.447 58.187L560.062 57.9C561.046 60.237 563.342 61.836 566.048 61.836C569.656 61.836 572.567 58.925 572.567 55.317C572.567 52.242 570.476 49.7 567.606 48.962L565.802 48.511C565.064 48.306 564.613 47.691 564.613 46.953C564.613 46.051 565.31 45.354 566.212 45.354C566.909 45.354 567.483 45.805 567.688 46.42L567.114 46.666C566.991 46.297 566.622 46.01 566.212 46.01C565.679 46.01 565.269 46.42 565.269 46.953C565.269 47.404 565.515 47.773 565.966 47.896L567.811 48.347C570.968 49.126 573.223 51.955 573.223 55.317C573.223 59.294 570.025 62.492 566.048 62.492C563.096 62.492 560.554 60.729 559.447 58.187ZM603.824 61.959L603.332 62.369L600.708 59.499C598.084 61.18 595.132 62.492 592.344 62.492C587.875 62.492 583.98 58.925 583.98 54.456C583.98 51.545 585.743 48.757 588.121 47.281L589.146 46.625L588.941 46.379C587.711 44.985 586.85 43.017 586.85 40.967C586.85 36.498 590.499 32.808 594.968 32.808C599.437 32.808 603.086 36.498 603.086 40.967C603.086 43.96 601.241 46.379 598.986 47.855L598.74 48.019L601.446 51.012C602.758 49.782 603.701 48.757 603.988 48.429L604.439 48.921C604.152 49.208 603.209 50.274 601.856 51.504L605.177 55.194C606.489 54.046 607.473 53.062 607.924 52.611L608.375 53.062C607.924 53.513 606.94 54.497 605.628 55.686L608.088 58.392L607.596 58.802L605.136 56.096C603.742 57.285 602.594 58.146 601.282 59.13L603.824 61.959ZM589.597 47.158L588.449 47.855C586.194 49.249 584.636 51.709 584.636 54.456C584.636 58.597 588.203 61.836 592.344 61.836C594.968 61.836 597.756 60.606 600.257 59.007L596.977 55.358C595.378 56.383 593.738 57.08 592.344 57.08C590.95 57.08 589.556 55.85 589.556 54.456C589.556 53.39 590.048 52.447 591.237 51.75L592.877 50.766L589.597 47.158ZM593.984 43.673L593.164 42.771C592.59 42.156 592.426 41.541 592.426 40.967C592.426 39.573 593.574 38.384 594.968 38.384C596.362 38.384 597.51 39.573 597.51 40.967C597.51 41.951 596.813 42.689 596.034 43.181L594.968 43.837L598.289 47.527L598.494 47.404C600.79 46.01 602.43 43.714 602.43 40.967C602.43 36.826 599.109 33.464 594.968 33.464C590.827 33.464 587.506 36.826 587.506 40.967C587.506 42.894 588.244 44.657 589.433 45.969L589.72 46.297L593.984 43.673ZM592.344 56.424C593.615 56.424 595.091 55.768 596.567 54.866L593.328 51.258L591.565 52.324C590.581 52.939 590.212 53.636 590.212 54.456C590.212 55.522 591.278 56.424 592.344 56.424ZM593.082 40.967C593.082 41.418 593.246 41.91 593.656 42.361L594.517 43.345L595.706 42.607C596.362 42.197 596.854 41.664 596.854 40.967C596.854 39.901 596.034 39.04 594.968 39.04C593.902 39.04 593.082 39.901 593.082 40.967ZM598.166 48.347L593.902 50.93L597.1 54.497C598.453 53.554 599.724 52.57 600.954 51.463L598.166 48.347ZM603.086 56.957C603.783 56.424 604.152 56.096 604.685 55.645L601.405 51.914C600.257 52.98 598.904 54.046 597.551 54.989L600.831 58.638C601.446 58.228 602.594 57.326 603.086 56.957ZM597.715 47.855L594.435 44.165L590.171 46.789L593.451 50.438L597.715 47.855ZM634.371 56.424H632.362C627.319 56.424 623.629 52.447 623.629 47.65C623.629 42.812 627.319 38.876 632.362 38.876H634.371V39.532H632.362C627.729 39.532 624.285 43.14 624.285 47.65C624.285 52.119 627.729 55.768 632.362 55.768H634.371V56.424ZM634.371 62H632.362C624.408 62 618.053 55.563 618.053 47.65C618.053 39.737 624.408 33.3 632.362 33.3H634.371V33.956H632.362C624.736 33.956 618.709 40.065 618.709 47.65C618.709 55.235 624.736 61.344 632.362 61.344H634.371V62ZM647.143 62.492C640.87 62.492 635.786 57.408 635.786 51.135C635.786 44.862 640.87 39.778 647.143 39.778C653.416 39.778 658.5 44.862 658.5 51.135C658.5 57.408 653.416 62.492 647.143 62.492ZM647.143 61.836C653.047 61.836 657.844 57.039 657.844 51.135C657.844 45.231 653.047 40.434 647.143 40.434C641.239 40.434 636.442 45.231 636.442 51.135C636.442 57.039 641.239 61.836 647.143 61.836ZM647.143 56.916C643.945 56.916 641.362 54.333 641.362 51.135C641.362 47.937 643.945 45.354 647.143 45.354C650.341 45.354 652.924 47.937 652.924 51.135C652.924 54.333 650.341 56.916 647.143 56.916ZM647.143 56.26C649.972 56.26 652.268 53.964 652.268 51.135C652.268 48.306 649.972 46.01 647.143 46.01C644.314 46.01 642.018 48.306 642.018 51.135C642.018 53.964 644.314 56.26 647.143 56.26ZM661.44 62V40.27H662.096V46.461C662.998 44.124 664.761 42.197 667.016 41.09V40.27H667.672V40.762C668.82 40.311 670.05 40.065 671.362 40.065C676.815 40.065 681.284 44.534 681.284 49.987V62H680.628V49.987C680.628 44.903 676.446 40.721 671.362 40.721C670.05 40.721 668.82 41.008 667.672 41.5V47.691C668.451 46.461 669.804 45.641 671.362 45.641C673.74 45.641 675.708 47.609 675.708 49.987V62H675.052V49.987C675.052 47.978 673.371 46.297 671.362 46.297C669.353 46.297 667.672 47.978 667.672 49.987V62H667.016V41.828C664.105 43.386 662.096 46.461 662.096 49.987V62H661.44ZM683.913 51.135C683.913 44.862 688.997 39.778 695.27 39.778C697.115 39.778 698.837 40.229 700.395 41.008V31.25H701.051V41.377C703.347 42.648 705.11 44.944 705.971 47.322V31.25H706.627V62H705.971V54.907C705.151 57.244 703.347 59.663 701.051 60.934V62H700.395V61.262C698.837 62.041 697.115 62.492 695.27 62.492C688.997 62.492 683.913 57.408 683.913 51.135ZM684.569 51.135C684.569 57.039 689.366 61.836 695.27 61.836C697.115 61.836 698.878 61.385 700.395 60.565V53.841C699.411 55.645 697.484 56.916 695.27 56.916C692.072 56.916 689.489 54.333 689.489 51.135C689.489 47.937 692.072 45.354 695.27 45.354C697.484 45.354 699.411 46.625 700.395 48.47V41.746C698.878 40.926 697.115 40.434 695.27 40.434C689.366 40.434 684.569 45.231 684.569 51.135ZM690.145 51.135C690.145 53.964 692.441 56.26 695.27 56.26C698.14 56.26 700.395 53.964 700.395 51.135C700.395 48.306 698.14 46.01 695.27 46.01C692.441 46.01 690.145 48.306 690.145 51.135ZM701.051 42.115V60.155C703.798 58.474 705.971 55.071 705.971 51.135C705.971 47.199 703.798 43.796 701.051 42.115ZM710.808 62V40.27H711.464V62H710.808ZM717.04 40.27V62H716.384V40.27H717.04ZM716.384 38.138V31.25H717.04V38.138H716.384ZM711.464 31.25V38.138H710.808V31.25H711.464ZM723.268 40.926H720.029V40.27H723.268V33.3H723.924V40.27H728.844V33.3H729.5V40.27H732.739V40.926H729.5V45.846H732.739V46.502H729.5V62H728.844V46.502H723.924V62H723.268V46.502H720.029V45.846H723.268V40.926ZM728.844 40.926H723.924V45.846H728.844V40.926ZM735.713 62V40.27H736.369V62H735.713ZM741.945 40.27V62H741.289V40.27H741.945ZM741.289 38.138V31.25H741.945V38.138H741.289ZM736.369 31.25V38.138H735.713V31.25H736.369ZM756.25 62.492C749.977 62.492 744.893 57.408 744.893 51.135C744.893 44.862 749.977 39.778 756.25 39.778C762.523 39.778 767.607 44.862 767.607 51.135C767.607 57.408 762.523 62.492 756.25 62.492ZM756.25 61.836C762.154 61.836 766.951 57.039 766.951 51.135C766.951 45.231 762.154 40.434 756.25 40.434C750.346 40.434 745.549 45.231 745.549 51.135C745.549 57.039 750.346 61.836 756.25 61.836ZM756.25 56.916C753.052 56.916 750.469 54.333 750.469 51.135C750.469 47.937 753.052 45.354 756.25 45.354C759.448 45.354 762.031 47.937 762.031 51.135C762.031 54.333 759.448 56.916 756.25 56.916ZM756.25 56.26C759.079 56.26 761.375 53.964 761.375 51.135C761.375 48.306 759.079 46.01 756.25 46.01C753.421 46.01 751.125 48.306 751.125 51.135C751.125 53.964 753.421 56.26 756.25 56.26ZM770.547 62V40.27H771.203V46.461C772.105 44.124 773.868 42.197 776.123 41.09V40.27H776.779V40.762C777.927 40.311 779.157 40.065 780.469 40.065C785.922 40.065 790.391 44.534 790.391 49.987V62H789.735V49.987C789.735 44.903 785.553 40.721 780.469 40.721C779.157 40.721 777.927 41.008 776.779 41.5V47.691C777.558 46.461 778.911 45.641 780.469 45.641C782.847 45.641 784.815 47.609 784.815 49.987V62H784.159V49.987C784.159 47.978 782.478 46.297 780.469 46.297C778.46 46.297 776.779 47.978 776.779 49.987V62H776.123V41.828C773.212 43.386 771.203 46.461 771.203 49.987V62H770.547ZM810.158 42.115V60.155C812.905 58.474 815.078 55.071 815.078 51.135C815.078 47.199 812.905 43.796 810.158 42.115ZM804.377 39.778C806.222 39.778 807.944 40.229 809.502 41.008V40.27H810.158V41.377C812.454 42.648 814.217 44.944 815.078 47.322V40.27H815.734V62H815.078V54.907C814.258 57.244 812.454 59.663 810.158 60.934V62H809.502V61.262C807.944 62.041 806.222 62.492 804.377 62.492C798.104 62.492 793.02 57.408 793.02 51.135C793.02 44.862 798.104 39.778 804.377 39.778ZM804.377 61.836C806.222 61.836 807.985 61.385 809.502 60.565V53.841C808.518 55.645 806.591 56.916 804.377 56.916C801.179 56.916 798.596 54.333 798.596 51.135C798.596 47.937 801.179 45.354 804.377 45.354C806.591 45.354 808.518 46.625 809.502 48.47V41.746C807.985 40.926 806.222 40.434 804.377 40.434C798.473 40.434 793.676 45.231 793.676 51.135C793.676 57.039 798.473 61.836 804.377 61.836ZM804.377 56.26C807.247 56.26 809.502 53.964 809.502 51.135C809.502 48.306 807.247 46.01 804.377 46.01C801.548 46.01 799.252 48.306 799.252 51.135C799.252 53.964 801.548 56.26 804.377 56.26ZM820.571 31.25V62H819.915V31.25H820.571ZM826.147 31.25V62H825.491V31.25H826.147ZM829.341 46.953C829.341 42.976 832.539 39.778 836.516 39.778C839.468 39.778 842.01 41.582 843.117 44.124L842.502 44.411C841.518 42.074 839.181 40.434 836.516 40.434C832.908 40.434 829.997 43.345 829.997 46.953C829.997 50.028 832.088 52.57 834.958 53.308L836.762 53.759C837.459 53.923 837.951 54.579 837.951 55.317C837.951 56.219 837.254 56.916 836.352 56.916C835.655 56.916 835.081 56.506 834.835 55.85L835.45 55.604C835.573 55.973 835.901 56.26 836.352 56.26C836.885 56.26 837.295 55.85 837.295 55.317C837.295 54.866 837.049 54.497 836.598 54.374L834.753 53.923C831.637 53.144 829.341 50.315 829.341 46.953ZM829.751 58.187L830.366 57.9C831.35 60.237 833.646 61.836 836.352 61.836C839.96 61.836 842.871 58.925 842.871 55.317C842.871 52.242 840.78 49.7 837.91 48.962L836.106 48.511C835.368 48.306 834.917 47.691 834.917 46.953C834.917 46.051 835.614 45.354 836.516 45.354C837.213 45.354 837.787 45.805 837.992 46.42L837.418 46.666C837.295 46.297 836.926 46.01 836.516 46.01C835.983 46.01 835.573 46.42 835.573 46.953C835.573 47.404 835.819 47.773 836.27 47.896L838.115 48.347C841.272 49.126 843.527 51.955 843.527 55.317C843.527 59.294 840.329 62.492 836.352 62.492C833.4 62.492 830.858 60.729 829.751 58.187ZM862.114 50.11H870.027V50.766H862.114V62H861.458V50.766H856.538V62H855.882V33.3H872.979V33.956H862.114V38.876H872.979V39.532H862.114V44.534H870.027V45.19H862.114V50.11ZM856.538 39.532V44.534H861.458V39.532H856.538ZM861.458 45.19H856.538V50.11H861.458V45.19ZM856.538 33.956V38.876H861.458V33.956H856.538ZM894.645 40.27V62H893.989V55.809C893.087 58.146 891.324 60.073 889.069 61.18V62H888.413V61.508C887.265 61.959 886.035 62.205 884.723 62.205C879.27 62.205 874.801 57.736 874.801 52.283V40.27H875.457V52.283C875.457 57.367 879.639 61.549 884.723 61.549C886.035 61.549 887.265 61.262 888.413 60.77V54.579C887.634 55.809 886.281 56.629 884.723 56.629C882.345 56.629 880.377 54.661 880.377 52.283V40.27H881.033V52.283C881.033 54.292 882.714 55.973 884.723 55.973C886.732 55.973 888.413 54.292 888.413 52.283V40.27H889.069V60.442C891.98 58.884 893.989 55.809 893.989 52.283V40.27H894.645ZM898.832 62V40.27H899.488V46.461C900.39 44.124 902.153 42.197 904.408 41.09V40.27H905.064V40.762C906.212 40.311 907.442 40.065 908.754 40.065C914.207 40.065 918.676 44.534 918.676 49.987V62H918.02V49.987C918.02 44.903 913.838 40.721 908.754 40.721C907.442 40.721 906.212 41.008 905.064 41.5V47.691C905.843 46.461 907.196 45.641 908.754 45.641C911.132 45.641 913.1 47.609 913.1 49.987V62H912.444V49.987C912.444 47.978 910.763 46.297 908.754 46.297C906.745 46.297 905.064 47.978 905.064 49.987V62H904.408V41.828C901.497 43.386 899.488 46.461 899.488 49.987V62H898.832ZM933.4 45.846V46.502H932.211C929.71 46.502 927.578 48.634 927.578 51.135C927.578 53.636 929.71 55.768 932.211 55.768H933.4V56.424H932.211C929.341 56.424 926.922 54.005 926.922 51.135C926.922 48.265 929.341 45.846 932.211 45.846H933.4ZM933.4 40.926H932.211C926.594 40.926 922.002 45.518 922.002 51.135C922.002 56.752 926.594 61.344 932.211 61.344H933.4V62H932.211C926.225 62 921.346 57.121 921.346 51.135C921.346 45.149 926.225 40.27 932.211 40.27H933.4V40.926ZM938.919 40.926H935.68V40.27H938.919V33.3H939.575V40.27H944.495V33.3H945.151V40.27H948.39V40.926H945.151V45.846H948.39V46.502H945.151V62H944.495V46.502H939.575V62H938.919V46.502H935.68V45.846H938.919V40.926ZM944.495 40.926H939.575V45.846H944.495V40.926ZM951.363 62V40.27H952.019V62H951.363ZM957.595 40.27V62H956.939V40.27H957.595ZM956.939 38.138V31.25H957.595V38.138H956.939ZM952.019 31.25V38.138H951.363V31.25H952.019ZM971.9 62.492C965.627 62.492 960.543 57.408 960.543 51.135C960.543 44.862 965.627 39.778 971.9 39.778C978.173 39.778 983.257 44.862 983.257 51.135C983.257 57.408 978.173 62.492 971.9 62.492ZM971.9 61.836C977.804 61.836 982.601 57.039 982.601 51.135C982.601 45.231 977.804 40.434 971.9 40.434C965.996 40.434 961.199 45.231 961.199 51.135C961.199 57.039 965.996 61.836 971.9 61.836ZM971.9 56.916C968.702 56.916 966.119 54.333 966.119 51.135C966.119 47.937 968.702 45.354 971.9 45.354C975.098 45.354 977.681 47.937 977.681 51.135C977.681 54.333 975.098 56.916 971.9 56.916ZM971.9 56.26C974.729 56.26 977.025 53.964 977.025 51.135C977.025 48.306 974.729 46.01 971.9 46.01C969.071 46.01 966.775 48.306 966.775 51.135C966.775 53.964 969.071 56.26 971.9 56.26ZM986.197 62V40.27H986.853V46.461C987.755 44.124 989.518 42.197 991.773 41.09V40.27H992.429V40.762C993.577 40.311 994.807 40.065 996.119 40.065C1001.57 40.065 1006.04 44.534 1006.04 49.987V62H1005.38V49.987C1005.38 44.903 1001.2 40.721 996.119 40.721C994.807 40.721 993.577 41.008 992.429 41.5V47.691C993.208 46.461 994.561 45.641 996.119 45.641C998.497 45.641 1000.46 47.609 1000.46 49.987V62H999.809V49.987C999.809 47.978 998.128 46.297 996.119 46.297C994.11 46.297 992.429 47.978 992.429 49.987V62H991.773V41.828C988.862 43.386 986.853 46.461 986.853 49.987V62H986.197ZM1008.92 46.953C1008.92 42.976 1012.11 39.778 1016.09 39.778C1019.04 39.778 1021.59 41.582 1022.69 44.124L1022.08 44.411C1021.09 42.074 1018.76 40.434 1016.09 40.434C1012.48 40.434 1009.57 43.345 1009.57 46.953C1009.57 50.028 1011.66 52.57 1014.53 53.308L1016.34 53.759C1017.03 53.923 1017.53 54.579 1017.53 55.317C1017.53 56.219 1016.83 56.916 1015.93 56.916C1015.23 56.916 1014.66 56.506 1014.41 55.85L1015.03 55.604C1015.15 55.973 1015.48 56.26 1015.93 56.26C1016.46 56.26 1016.87 55.85 1016.87 55.317C1016.87 54.866 1016.62 54.497 1016.17 54.374L1014.33 53.923C1011.21 53.144 1008.92 50.315 1008.92 46.953ZM1009.33 58.187L1009.94 57.9C1010.93 60.237 1013.22 61.836 1015.93 61.836C1019.54 61.836 1022.45 58.925 1022.45 55.317C1022.45 52.242 1020.36 49.7 1017.49 48.962L1015.68 48.511C1014.94 48.306 1014.49 47.691 1014.49 46.953C1014.49 46.051 1015.19 45.354 1016.09 45.354C1016.79 45.354 1017.36 45.805 1017.57 46.42L1016.99 46.666C1016.87 46.297 1016.5 46.01 1016.09 46.01C1015.56 46.01 1015.15 46.42 1015.15 46.953C1015.15 47.404 1015.39 47.773 1015.85 47.896L1017.69 48.347C1020.85 49.126 1023.1 51.955 1023.1 55.317C1023.1 59.294 1019.9 62.492 1015.93 62.492C1012.98 62.492 1010.43 60.729 1009.33 58.187ZM1053.7 61.959L1053.21 62.369L1050.59 59.499C1047.96 61.18 1045.01 62.492 1042.22 62.492C1037.75 62.492 1033.86 58.925 1033.86 54.456C1033.86 51.545 1035.62 48.757 1038 47.281L1039.02 46.625L1038.82 46.379C1037.59 44.985 1036.73 43.017 1036.73 40.967C1036.73 36.498 1040.38 32.808 1044.85 32.808C1049.32 32.808 1052.96 36.498 1052.96 40.967C1052.96 43.96 1051.12 46.379 1048.86 47.855L1048.62 48.019L1051.32 51.012C1052.64 49.782 1053.58 48.757 1053.87 48.429L1054.32 48.921C1054.03 49.208 1053.09 50.274 1051.73 51.504L1055.06 55.194C1056.37 54.046 1057.35 53.062 1057.8 52.611L1058.25 53.062C1057.8 53.513 1056.82 54.497 1055.51 55.686L1057.97 58.392L1057.47 58.802L1055.01 56.096C1053.62 57.285 1052.47 58.146 1051.16 59.13L1053.7 61.959ZM1039.48 47.158L1038.33 47.855C1036.07 49.249 1034.51 51.709 1034.51 54.456C1034.51 58.597 1038.08 61.836 1042.22 61.836C1044.85 61.836 1047.63 60.606 1050.14 59.007L1046.86 55.358C1045.26 56.383 1043.62 57.08 1042.22 57.08C1040.83 57.08 1039.43 55.85 1039.43 54.456C1039.43 53.39 1039.93 52.447 1041.12 51.75L1042.76 50.766L1039.48 47.158ZM1043.86 43.673L1043.04 42.771C1042.47 42.156 1042.3 41.541 1042.3 40.967C1042.3 39.573 1043.45 38.384 1044.85 38.384C1046.24 38.384 1047.39 39.573 1047.39 40.967C1047.39 41.951 1046.69 42.689 1045.91 43.181L1044.85 43.837L1048.17 47.527L1048.37 47.404C1050.67 46.01 1052.31 43.714 1052.31 40.967C1052.31 36.826 1048.99 33.464 1044.85 33.464C1040.71 33.464 1037.38 36.826 1037.38 40.967C1037.38 42.894 1038.12 44.657 1039.31 45.969L1039.6 46.297L1043.86 43.673ZM1042.22 56.424C1043.49 56.424 1044.97 55.768 1046.45 54.866L1043.21 51.258L1041.44 52.324C1040.46 52.939 1040.09 53.636 1040.09 54.456C1040.09 55.522 1041.16 56.424 1042.22 56.424ZM1042.96 40.967C1042.96 41.418 1043.12 41.91 1043.53 42.361L1044.4 43.345L1045.58 42.607C1046.24 42.197 1046.73 41.664 1046.73 40.967C1046.73 39.901 1045.91 39.04 1044.85 39.04C1043.78 39.04 1042.96 39.901 1042.96 40.967ZM1048.04 48.347L1043.78 50.93L1046.98 54.497C1048.33 53.554 1049.6 52.57 1050.83 51.463L1048.04 48.347ZM1052.96 56.957C1053.66 56.424 1054.03 56.096 1054.56 55.645L1051.28 51.914C1050.14 52.98 1048.78 54.046 1047.43 54.989L1050.71 58.638C1051.32 58.228 1052.47 57.326 1052.96 56.957ZM1047.59 47.855L1044.31 44.165L1040.05 46.789L1043.33 50.438L1047.59 47.855ZM1084.25 56.424H1082.24C1077.2 56.424 1073.51 52.447 1073.51 47.65C1073.51 42.812 1077.2 38.876 1082.24 38.876H1084.25V39.532H1082.24C1077.61 39.532 1074.16 43.14 1074.16 47.65C1074.16 52.119 1077.61 55.768 1082.24 55.768H1084.25V56.424ZM1084.25 62H1082.24C1074.29 62 1067.93 55.563 1067.93 47.65C1067.93 39.737 1074.29 33.3 1082.24 33.3H1084.25V33.956H1082.24C1074.61 33.956 1068.59 40.065 1068.59 47.65C1068.59 55.235 1074.61 61.344 1082.24 61.344H1084.25V62ZM1097.02 62.492C1090.75 62.492 1085.67 57.408 1085.67 51.135C1085.67 44.862 1090.75 39.778 1097.02 39.778C1103.3 39.778 1108.38 44.862 1108.38 51.135C1108.38 57.408 1103.3 62.492 1097.02 62.492ZM1097.02 61.836C1102.93 61.836 1107.72 57.039 1107.72 51.135C1107.72 45.231 1102.93 40.434 1097.02 40.434C1091.12 40.434 1086.32 45.231 1086.32 51.135C1086.32 57.039 1091.12 61.836 1097.02 61.836ZM1097.02 56.916C1093.82 56.916 1091.24 54.333 1091.24 51.135C1091.24 47.937 1093.82 45.354 1097.02 45.354C1100.22 45.354 1102.8 47.937 1102.8 51.135C1102.8 54.333 1100.22 56.916 1097.02 56.916ZM1097.02 56.26C1099.85 56.26 1102.15 53.964 1102.15 51.135C1102.15 48.306 1099.85 46.01 1097.02 46.01C1094.19 46.01 1091.9 48.306 1091.9 51.135C1091.9 53.964 1094.19 56.26 1097.02 56.26ZM1111.32 62V40.27H1111.98V46.461C1112.88 44.124 1114.64 42.197 1116.9 41.09V40.27H1117.55V40.762C1118.7 40.311 1119.93 40.065 1121.24 40.065C1126.69 40.065 1131.16 44.534 1131.16 49.987V62H1130.51V49.987C1130.51 44.903 1126.33 40.721 1121.24 40.721C1119.93 40.721 1118.7 41.008 1117.55 41.5V47.691C1118.33 46.461 1119.68 45.641 1121.24 45.641C1123.62 45.641 1125.59 47.609 1125.59 49.987V62H1124.93V49.987C1124.93 47.978 1123.25 46.297 1121.24 46.297C1119.23 46.297 1117.55 47.978 1117.55 49.987V62H1116.9V41.828C1113.98 43.386 1111.98 46.461 1111.98 49.987V62H1111.32ZM1133.79 51.135C1133.79 44.862 1138.88 39.778 1145.15 39.778C1146.99 39.778 1148.72 40.229 1150.27 41.008V31.25H1150.93V41.377C1153.23 42.648 1154.99 44.944 1155.85 47.322V31.25H1156.51V62H1155.85V54.907C1155.03 57.244 1153.23 59.663 1150.93 60.934V62H1150.27V61.262C1148.72 62.041 1146.99 62.492 1145.15 62.492C1138.88 62.492 1133.79 57.408 1133.79 51.135ZM1134.45 51.135C1134.45 57.039 1139.25 61.836 1145.15 61.836C1146.99 61.836 1148.76 61.385 1150.27 60.565V53.841C1149.29 55.645 1147.36 56.916 1145.15 56.916C1141.95 56.916 1139.37 54.333 1139.37 51.135C1139.37 47.937 1141.95 45.354 1145.15 45.354C1147.36 45.354 1149.29 46.625 1150.27 48.47V41.746C1148.76 40.926 1146.99 40.434 1145.15 40.434C1139.25 40.434 1134.45 45.231 1134.45 51.135ZM1140.02 51.135C1140.02 53.964 1142.32 56.26 1145.15 56.26C1148.02 56.26 1150.27 53.964 1150.27 51.135C1150.27 48.306 1148.02 46.01 1145.15 46.01C1142.32 46.01 1140.02 48.306 1140.02 51.135ZM1150.93 42.115V60.155C1153.68 58.474 1155.85 55.071 1155.85 51.135C1155.85 47.199 1153.68 43.796 1150.93 42.115ZM1160.69 62V40.27H1161.34V62H1160.69ZM1166.92 40.27V62H1166.26V40.27H1166.92ZM1166.26 38.138V31.25H1166.92V38.138H1166.26ZM1161.34 31.25V38.138H1160.69V31.25H1161.34ZM1173.15 40.926H1169.91V40.27H1173.15V33.3H1173.8V40.27H1178.72V33.3H1179.38V40.27H1182.62V40.926H1179.38V45.846H1182.62V46.502H1179.38V62H1178.72V46.502H1173.8V62H1173.15V46.502H1169.91V45.846H1173.15V40.926ZM1178.72 40.926H1173.8V45.846H1178.72V40.926ZM1185.59 62V40.27H1186.25V62H1185.59ZM1191.82 40.27V62H1191.17V40.27H1191.82ZM1191.17 38.138V31.25H1191.82V38.138H1191.17ZM1186.25 31.25V38.138H1185.59V31.25H1186.25ZM1206.13 62.492C1199.86 62.492 1194.77 57.408 1194.77 51.135C1194.77 44.862 1199.86 39.778 1206.13 39.778C1212.4 39.778 1217.49 44.862 1217.49 51.135C1217.49 57.408 1212.4 62.492 1206.13 62.492ZM1206.13 61.836C1212.03 61.836 1216.83 57.039 1216.83 51.135C1216.83 45.231 1212.03 40.434 1206.13 40.434C1200.22 40.434 1195.43 45.231 1195.43 51.135C1195.43 57.039 1200.22 61.836 1206.13 61.836ZM1206.13 56.916C1202.93 56.916 1200.35 54.333 1200.35 51.135C1200.35 47.937 1202.93 45.354 1206.13 45.354C1209.33 45.354 1211.91 47.937 1211.91 51.135C1211.91 54.333 1209.33 56.916 1206.13 56.916ZM1206.13 56.26C1208.96 56.26 1211.25 53.964 1211.25 51.135C1211.25 48.306 1208.96 46.01 1206.13 46.01C1203.3 46.01 1201 48.306 1201 51.135C1201 53.964 1203.3 56.26 1206.13 56.26ZM1220.43 62V40.27H1221.08V46.461C1221.98 44.124 1223.75 42.197 1226 41.09V40.27H1226.66V40.762C1227.81 40.311 1229.04 40.065 1230.35 40.065C1235.8 40.065 1240.27 44.534 1240.27 49.987V62H1239.61V49.987C1239.61 44.903 1235.43 40.721 1230.35 40.721C1229.04 40.721 1227.81 41.008 1226.66 41.5V47.691C1227.44 46.461 1228.79 45.641 1230.35 45.641C1232.73 45.641 1234.69 47.609 1234.69 49.987V62H1234.04V49.987C1234.04 47.978 1232.36 46.297 1230.35 46.297C1228.34 46.297 1226.66 47.978 1226.66 49.987V62H1226V41.828C1223.09 43.386 1221.08 46.461 1221.08 49.987V62H1220.43ZM1260.04 42.115V60.155C1262.78 58.474 1264.96 55.071 1264.96 51.135C1264.96 47.199 1262.78 43.796 1260.04 42.115ZM1254.26 39.778C1256.1 39.778 1257.82 40.229 1259.38 41.008V40.27H1260.04V41.377C1262.33 42.648 1264.1 44.944 1264.96 47.322V40.27H1265.61V62H1264.96V54.907C1264.14 57.244 1262.33 59.663 1260.04 60.934V62H1259.38V61.262C1257.82 62.041 1256.1 62.492 1254.26 62.492C1247.98 62.492 1242.9 57.408 1242.9 51.135C1242.9 44.862 1247.98 39.778 1254.26 39.778ZM1254.26 61.836C1256.1 61.836 1257.86 61.385 1259.38 60.565V53.841C1258.4 55.645 1256.47 56.916 1254.26 56.916C1251.06 56.916 1248.47 54.333 1248.47 51.135C1248.47 47.937 1251.06 45.354 1254.26 45.354C1256.47 45.354 1258.4 46.625 1259.38 48.47V41.746C1257.86 40.926 1256.1 40.434 1254.26 40.434C1248.35 40.434 1243.55 45.231 1243.55 51.135C1243.55 57.039 1248.35 61.836 1254.26 61.836ZM1254.26 56.26C1257.13 56.26 1259.38 53.964 1259.38 51.135C1259.38 48.306 1257.13 46.01 1254.26 46.01C1251.43 46.01 1249.13 48.306 1249.13 51.135C1249.13 53.964 1251.43 56.26 1254.26 56.26ZM1270.45 31.25V62H1269.79V31.25H1270.45ZM1276.03 31.25V62H1275.37V31.25H1276.03ZM1279.22 46.953C1279.22 42.976 1282.42 39.778 1286.39 39.778C1289.35 39.778 1291.89 41.582 1293 44.124L1292.38 44.411C1291.4 42.074 1289.06 40.434 1286.39 40.434C1282.79 40.434 1279.88 43.345 1279.88 46.953C1279.88 50.028 1281.97 52.57 1284.84 53.308L1286.64 53.759C1287.34 53.923 1287.83 54.579 1287.83 55.317C1287.83 56.219 1287.13 56.916 1286.23 56.916C1285.53 56.916 1284.96 56.506 1284.71 55.85L1285.33 55.604C1285.45 55.973 1285.78 56.26 1286.23 56.26C1286.76 56.26 1287.17 55.85 1287.17 55.317C1287.17 54.866 1286.93 54.497 1286.48 54.374L1284.63 53.923C1281.52 53.144 1279.22 50.315 1279.22 46.953ZM1279.63 58.187L1280.24 57.9C1281.23 60.237 1283.52 61.836 1286.23 61.836C1289.84 61.836 1292.75 58.925 1292.75 55.317C1292.75 52.242 1290.66 49.7 1287.79 48.962L1285.98 48.511C1285.25 48.306 1284.8 47.691 1284.8 46.953C1284.8 46.051 1285.49 45.354 1286.39 45.354C1287.09 45.354 1287.67 45.805 1287.87 46.42L1287.3 46.666C1287.17 46.297 1286.8 46.01 1286.39 46.01C1285.86 46.01 1285.45 46.42 1285.45 46.953C1285.45 47.404 1285.7 47.773 1286.15 47.896L1287.99 48.347C1291.15 49.126 1293.41 51.955 1293.41 55.317C1293.41 59.294 1290.21 62.492 1286.23 62.492C1283.28 62.492 1280.74 60.729 1279.63 58.187ZM1311.99 50.11H1319.91V50.766H1311.99V62H1311.34V50.766H1306.42V62H1305.76V33.3H1322.86V33.956H1311.99V38.876H1322.86V39.532H1311.99V44.534H1319.91V45.19H1311.99V50.11ZM1306.42 39.532V44.534H1311.34V39.532H1306.42ZM1311.34 45.19H1306.42V50.11H1311.34V45.19ZM1306.42 33.956V38.876H1311.34V33.956H1306.42ZM1344.52 40.27V62H1343.87V55.809C1342.97 58.146 1341.2 60.073 1338.95 61.18V62H1338.29V61.508C1337.14 61.959 1335.91 62.205 1334.6 62.205C1329.15 62.205 1324.68 57.736 1324.68 52.283V40.27H1325.34V52.283C1325.34 57.367 1329.52 61.549 1334.6 61.549C1335.91 61.549 1337.14 61.262 1338.29 60.77V54.579C1337.51 55.809 1336.16 56.629 1334.6 56.629C1332.22 56.629 1330.26 54.661 1330.26 52.283V40.27H1330.91V52.283C1330.91 54.292 1332.59 55.973 1334.6 55.973C1336.61 55.973 1338.29 54.292 1338.29 52.283V40.27H1338.95V60.442C1341.86 58.884 1343.87 55.809 1343.87 52.283V40.27H1344.52ZM1348.71 62V40.27H1349.37V46.461C1350.27 44.124 1352.03 42.197 1354.29 41.09V40.27H1354.94V40.762C1356.09 40.311 1357.32 40.065 1358.63 40.065C1364.09 40.065 1368.55 44.534 1368.55 49.987V62H1367.9V49.987C1367.9 44.903 1363.72 40.721 1358.63 40.721C1357.32 40.721 1356.09 41.008 1354.94 41.5V47.691C1355.72 46.461 1357.07 45.641 1358.63 45.641C1361.01 45.641 1362.98 47.609 1362.98 49.987V62H1362.32V49.987C1362.32 47.978 1360.64 46.297 1358.63 46.297C1356.62 46.297 1354.94 47.978 1354.94 49.987V62H1354.29V41.828C1351.38 43.386 1349.37 46.461 1349.37 49.987V62H1348.71ZM1383.28 45.846V46.502H1382.09C1379.59 46.502 1377.46 48.634 1377.46 51.135C1377.46 53.636 1379.59 55.768 1382.09 55.768H1383.28V56.424H1382.09C1379.22 56.424 1376.8 54.005 1376.8 51.135C1376.8 48.265 1379.22 45.846 1382.09 45.846H1383.28ZM1383.28 40.926H1382.09C1376.47 40.926 1371.88 45.518 1371.88 51.135C1371.88 56.752 1376.47 61.344 1382.09 61.344H1383.28V62H1382.09C1376.1 62 1371.22 57.121 1371.22 51.135C1371.22 45.149 1376.1 40.27 1382.09 40.27H1383.28V40.926ZM1388.8 40.926H1385.56V40.27H1388.8V33.3H1389.45V40.27H1394.37V33.3H1395.03V40.27H1398.27V40.926H1395.03V45.846H1398.27V46.502H1395.03V62H1394.37V46.502H1389.45V62H1388.8V46.502H1385.56V45.846H1388.8V40.926ZM1394.37 40.926H1389.45V45.846H1394.37V40.926ZM1401.24 62V40.27H1401.9V62H1401.24ZM1407.47 40.27V62H1406.82V40.27H1407.47ZM1406.82 38.138V31.25H1407.47V38.138H1406.82ZM1401.9 31.25V38.138H1401.24V31.25H1401.9ZM1421.78 62.492C1415.51 62.492 1410.42 57.408 1410.42 51.135C1410.42 44.862 1415.51 39.778 1421.78 39.778C1428.05 39.778 1433.14 44.862 1433.14 51.135C1433.14 57.408 1428.05 62.492 1421.78 62.492ZM1421.78 61.836C1427.68 61.836 1432.48 57.039 1432.48 51.135C1432.48 45.231 1427.68 40.434 1421.78 40.434C1415.88 40.434 1411.08 45.231 1411.08 51.135C1411.08 57.039 1415.88 61.836 1421.78 61.836ZM1421.78 56.916C1418.58 56.916 1416 54.333 1416 51.135C1416 47.937 1418.58 45.354 1421.78 45.354C1424.98 45.354 1427.56 47.937 1427.56 51.135C1427.56 54.333 1424.98 56.916 1421.78 56.916ZM1421.78 56.26C1424.61 56.26 1426.9 53.964 1426.9 51.135C1426.9 48.306 1424.61 46.01 1421.78 46.01C1418.95 46.01 1416.65 48.306 1416.65 51.135C1416.65 53.964 1418.95 56.26 1421.78 56.26ZM1436.08 62V40.27H1436.73V46.461C1437.63 44.124 1439.4 42.197 1441.65 41.09V40.27H1442.31V40.762C1443.46 40.311 1444.69 40.065 1446 40.065C1451.45 40.065 1455.92 44.534 1455.92 49.987V62H1455.26V49.987C1455.26 44.903 1451.08 40.721 1446 40.721C1444.69 40.721 1443.46 41.008 1442.31 41.5V47.691C1443.09 46.461 1444.44 45.641 1446 45.641C1448.38 45.641 1450.34 47.609 1450.34 49.987V62H1449.69V49.987C1449.69 47.978 1448.01 46.297 1446 46.297C1443.99 46.297 1442.31 47.978 1442.31 49.987V62H1441.65V41.828C1438.74 43.386 1436.73 46.461 1436.73 49.987V62H1436.08ZM1458.79 46.953C1458.79 42.976 1461.99 39.778 1465.97 39.778C1468.92 39.778 1471.46 41.582 1472.57 44.124L1471.96 44.411C1470.97 42.074 1468.63 40.434 1465.97 40.434C1462.36 40.434 1459.45 43.345 1459.45 46.953C1459.45 50.028 1461.54 52.57 1464.41 53.308L1466.22 53.759C1466.91 53.923 1467.4 54.579 1467.4 55.317C1467.4 56.219 1466.71 56.916 1465.81 56.916C1465.11 56.916 1464.53 56.506 1464.29 55.85L1464.9 55.604C1465.03 55.973 1465.35 56.26 1465.81 56.26C1466.34 56.26 1466.75 55.85 1466.75 55.317C1466.75 54.866 1466.5 54.497 1466.05 54.374L1464.21 53.923C1461.09 53.144 1458.79 50.315 1458.79 46.953ZM1459.2 58.187L1459.82 57.9C1460.8 60.237 1463.1 61.836 1465.81 61.836C1469.41 61.836 1472.32 58.925 1472.32 55.317C1472.32 52.242 1470.23 49.7 1467.36 48.962L1465.56 48.511C1464.82 48.306 1464.37 47.691 1464.37 46.953C1464.37 46.051 1465.07 45.354 1465.97 45.354C1466.67 45.354 1467.24 45.805 1467.45 46.42L1466.87 46.666C1466.75 46.297 1466.38 46.01 1465.97 46.01C1465.44 46.01 1465.03 46.42 1465.03 46.953C1465.03 47.404 1465.27 47.773 1465.72 47.896L1467.57 48.347C1470.73 49.126 1472.98 51.955 1472.98 55.317C1472.98 59.294 1469.78 62.492 1465.81 62.492C1462.85 62.492 1460.31 60.729 1459.2 58.187ZM1503.58 61.959L1503.09 62.369L1500.47 59.499C1497.84 61.18 1494.89 62.492 1492.1 62.492C1487.63 62.492 1483.74 58.925 1483.74 54.456C1483.74 51.545 1485.5 48.757 1487.88 47.281L1488.9 46.625L1488.7 46.379C1487.47 44.985 1486.61 43.017 1486.61 40.967C1486.61 36.498 1490.26 32.808 1494.73 32.808C1499.19 32.808 1502.84 36.498 1502.84 40.967C1502.84 43.96 1501 46.379 1498.74 47.855L1498.5 48.019L1501.2 51.012C1502.52 49.782 1503.46 48.757 1503.75 48.429L1504.2 48.921C1503.91 49.208 1502.97 50.274 1501.61 51.504L1504.93 55.194C1506.25 54.046 1507.23 53.062 1507.68 52.611L1508.13 53.062C1507.68 53.513 1506.7 54.497 1505.39 55.686L1507.85 58.392L1507.35 58.802L1504.89 56.096C1503.5 57.285 1502.35 58.146 1501.04 59.13L1503.58 61.959ZM1489.35 47.158L1488.21 47.855C1485.95 49.249 1484.39 51.709 1484.39 54.456C1484.39 58.597 1487.96 61.836 1492.1 61.836C1494.73 61.836 1497.51 60.606 1500.01 59.007L1496.73 55.358C1495.14 56.383 1493.5 57.08 1492.1 57.08C1490.71 57.08 1489.31 55.85 1489.31 54.456C1489.31 53.39 1489.81 52.447 1490.99 51.75L1492.63 50.766L1489.35 47.158ZM1493.74 43.673L1492.92 42.771C1492.35 42.156 1492.18 41.541 1492.18 40.967C1492.18 39.573 1493.33 38.384 1494.73 38.384C1496.12 38.384 1497.27 39.573 1497.27 40.967C1497.27 41.951 1496.57 42.689 1495.79 43.181L1494.73 43.837L1498.05 47.527L1498.25 47.404C1500.55 46.01 1502.19 43.714 1502.19 40.967C1502.19 36.826 1498.87 33.464 1494.73 33.464C1490.58 33.464 1487.26 36.826 1487.26 40.967C1487.26 42.894 1488 44.657 1489.19 45.969L1489.48 46.297L1493.74 43.673ZM1492.1 56.424C1493.37 56.424 1494.85 55.768 1496.32 54.866L1493.09 51.258L1491.32 52.324C1490.34 52.939 1489.97 53.636 1489.97 54.456C1489.97 55.522 1491.04 56.424 1492.1 56.424ZM1492.84 40.967C1492.84 41.418 1493 41.91 1493.41 42.361L1494.27 43.345L1495.46 42.607C1496.12 42.197 1496.61 41.664 1496.61 40.967C1496.61 39.901 1495.79 39.04 1494.73 39.04C1493.66 39.04 1492.84 39.901 1492.84 40.967ZM1497.92 48.347L1493.66 50.93L1496.86 54.497C1498.21 53.554 1499.48 52.57 1500.71 51.463L1497.92 48.347ZM1502.84 56.957C1503.54 56.424 1503.91 56.096 1504.44 55.645L1501.16 51.914C1500.01 52.98 1498.66 54.046 1497.31 54.989L1500.59 58.638C1501.2 58.228 1502.35 57.326 1502.84 56.957ZM1497.47 47.855L1494.19 44.165L1489.93 46.789L1493.21 50.438L1497.47 47.855ZM1534.13 56.424H1532.12C1527.08 56.424 1523.39 52.447 1523.39 47.65C1523.39 42.812 1527.08 38.876 1532.12 38.876H1534.13V39.532H1532.12C1527.49 39.532 1524.04 43.14 1524.04 47.65C1524.04 52.119 1527.49 55.768 1532.12 55.768H1534.13V56.424ZM1534.13 62H1532.12C1524.17 62 1517.81 55.563 1517.81 47.65C1517.81 39.737 1524.17 33.3 1532.12 33.3H1534.13V33.956H1532.12C1524.49 33.956 1518.47 40.065 1518.47 47.65C1518.47 55.235 1524.49 61.344 1532.12 61.344H1534.13V62ZM1546.9 62.492C1540.63 62.492 1535.54 57.408 1535.54 51.135C1535.54 44.862 1540.63 39.778 1546.9 39.778C1553.17 39.778 1558.26 44.862 1558.26 51.135C1558.26 57.408 1553.17 62.492 1546.9 62.492ZM1546.9 61.836C1552.81 61.836 1557.6 57.039 1557.6 51.135C1557.6 45.231 1552.81 40.434 1546.9 40.434C1541 40.434 1536.2 45.231 1536.2 51.135C1536.2 57.039 1541 61.836 1546.9 61.836ZM1546.9 56.916C1543.7 56.916 1541.12 54.333 1541.12 51.135C1541.12 47.937 1543.7 45.354 1546.9 45.354C1550.1 45.354 1552.68 47.937 1552.68 51.135C1552.68 54.333 1550.1 56.916 1546.9 56.916ZM1546.9 56.26C1549.73 56.26 1552.03 53.964 1552.03 51.135C1552.03 48.306 1549.73 46.01 1546.9 46.01C1544.07 46.01 1541.78 48.306 1541.78 51.135C1541.78 53.964 1544.07 56.26 1546.9 56.26ZM1561.2 62V40.27H1561.85V46.461C1562.76 44.124 1564.52 42.197 1566.77 41.09V40.27H1567.43V40.762C1568.58 40.311 1569.81 40.065 1571.12 40.065C1576.57 40.065 1581.04 44.534 1581.04 49.987V62H1580.39V49.987C1580.39 44.903 1576.2 40.721 1571.12 40.721C1569.81 40.721 1568.58 41.008 1567.43 41.5V47.691C1568.21 46.461 1569.56 45.641 1571.12 45.641C1573.5 45.641 1575.47 47.609 1575.47 49.987V62H1574.81V49.987C1574.81 47.978 1573.13 46.297 1571.12 46.297C1569.11 46.297 1567.43 47.978 1567.43 49.987V62H1566.77V41.828C1563.86 43.386 1561.85 46.461 1561.85 49.987V62H1561.2ZM1583.67 51.135C1583.67 44.862 1588.76 39.778 1595.03 39.778C1596.87 39.778 1598.6 40.229 1600.15 41.008V31.25H1600.81V41.377C1603.11 42.648 1604.87 44.944 1605.73 47.322V31.25H1606.39V62H1605.73V54.907C1604.91 57.244 1603.11 59.663 1600.81 60.934V62H1600.15V61.262C1598.6 62.041 1596.87 62.492 1595.03 62.492C1588.76 62.492 1583.67 57.408 1583.67 51.135ZM1584.33 51.135C1584.33 57.039 1589.12 61.836 1595.03 61.836C1596.87 61.836 1598.64 61.385 1600.15 60.565V53.841C1599.17 55.645 1597.24 56.916 1595.03 56.916C1591.83 56.916 1589.25 54.333 1589.25 51.135C1589.25 47.937 1591.83 45.354 1595.03 45.354C1597.24 45.354 1599.17 46.625 1600.15 48.47V41.746C1598.64 40.926 1596.87 40.434 1595.03 40.434C1589.12 40.434 1584.33 45.231 1584.33 51.135ZM1589.9 51.135C1589.9 53.964 1592.2 56.26 1595.03 56.26C1597.9 56.26 1600.15 53.964 1600.15 51.135C1600.15 48.306 1597.9 46.01 1595.03 46.01C1592.2 46.01 1589.9 48.306 1589.9 51.135ZM1600.81 42.115V60.155C1603.56 58.474 1605.73 55.071 1605.73 51.135C1605.73 47.199 1603.56 43.796 1600.81 42.115ZM1610.57 62V40.27H1611.22V62H1610.57ZM1616.8 40.27V62H1616.14V40.27H1616.8ZM1616.14 38.138V31.25H1616.8V38.138H1616.14ZM1611.22 31.25V38.138H1610.57V31.25H1611.22ZM1623.03 40.926H1619.79V40.27H1623.03V33.3H1623.68V40.27H1628.6V33.3H1629.26V40.27H1632.5V40.926H1629.26V45.846H1632.5V46.502H1629.26V62H1628.6V46.502H1623.68V62H1623.03V46.502H1619.79V45.846H1623.03V40.926ZM1628.6 40.926H1623.68V45.846H1628.6V40.926ZM1635.47 62V40.27H1636.13V62H1635.47ZM1641.7 40.27V62H1641.05V40.27H1641.7ZM1641.05 38.138V31.25H1641.7V38.138H1641.05ZM1636.13 31.25V38.138H1635.47V31.25H1636.13ZM1656.01 62.492C1649.73 62.492 1644.65 57.408 1644.65 51.135C1644.65 44.862 1649.73 39.778 1656.01 39.778C1662.28 39.778 1667.36 44.862 1667.36 51.135C1667.36 57.408 1662.28 62.492 1656.01 62.492ZM1656.01 61.836C1661.91 61.836 1666.71 57.039 1666.71 51.135C1666.71 45.231 1661.91 40.434 1656.01 40.434C1650.1 40.434 1645.31 45.231 1645.31 51.135C1645.31 57.039 1650.1 61.836 1656.01 61.836ZM1656.01 56.916C1652.81 56.916 1650.23 54.333 1650.23 51.135C1650.23 47.937 1652.81 45.354 1656.01 45.354C1659.21 45.354 1661.79 47.937 1661.79 51.135C1661.79 54.333 1659.21 56.916 1656.01 56.916ZM1656.01 56.26C1658.84 56.26 1661.13 53.964 1661.13 51.135C1661.13 48.306 1658.84 46.01 1656.01 46.01C1653.18 46.01 1650.88 48.306 1650.88 51.135C1650.88 53.964 1653.18 56.26 1656.01 56.26ZM1670.3 62V40.27H1670.96V46.461C1671.86 44.124 1673.63 42.197 1675.88 41.09V40.27H1676.54V40.762C1677.68 40.311 1678.91 40.065 1680.23 40.065C1685.68 40.065 1690.15 44.534 1690.15 49.987V62H1689.49V49.987C1689.49 44.903 1685.31 40.721 1680.23 40.721C1678.91 40.721 1677.68 41.008 1676.54 41.5V47.691C1677.32 46.461 1678.67 45.641 1680.23 45.641C1682.6 45.641 1684.57 47.609 1684.57 49.987V62H1683.92V49.987C1683.92 47.978 1682.24 46.297 1680.23 46.297C1678.22 46.297 1676.54 47.978 1676.54 49.987V62H1675.88V41.828C1672.97 43.386 1670.96 46.461 1670.96 49.987V62H1670.3ZM1709.92 42.115V60.155C1712.66 58.474 1714.84 55.071 1714.84 51.135C1714.84 47.199 1712.66 43.796 1709.92 42.115ZM1704.13 39.778C1705.98 39.778 1707.7 40.229 1709.26 41.008V40.27H1709.92V41.377C1712.21 42.648 1713.97 44.944 1714.84 47.322V40.27H1715.49V62H1714.84V54.907C1714.02 57.244 1712.21 59.663 1709.92 60.934V62H1709.26V61.262C1707.7 62.041 1705.98 62.492 1704.13 62.492C1697.86 62.492 1692.78 57.408 1692.78 51.135C1692.78 44.862 1697.86 39.778 1704.13 39.778ZM1704.13 61.836C1705.98 61.836 1707.74 61.385 1709.26 60.565V53.841C1708.28 55.645 1706.35 56.916 1704.13 56.916C1700.94 56.916 1698.35 54.333 1698.35 51.135C1698.35 47.937 1700.94 45.354 1704.13 45.354C1706.35 45.354 1708.28 46.625 1709.26 48.47V41.746C1707.74 40.926 1705.98 40.434 1704.13 40.434C1698.23 40.434 1693.43 45.231 1693.43 51.135C1693.43 57.039 1698.23 61.836 1704.13 61.836ZM1704.13 56.26C1707 56.26 1709.26 53.964 1709.26 51.135C1709.26 48.306 1707 46.01 1704.13 46.01C1701.31 46.01 1699.01 48.306 1699.01 51.135C1699.01 53.964 1701.31 56.26 1704.13 56.26ZM1720.33 31.25V62H1719.67V31.25H1720.33ZM1725.9 31.25V62H1725.25V31.25H1725.9ZM1729.1 46.953C1729.1 42.976 1732.3 39.778 1736.27 39.778C1739.23 39.778 1741.77 41.582 1742.87 44.124L1742.26 44.411C1741.28 42.074 1738.94 40.434 1736.27 40.434C1732.67 40.434 1729.75 43.345 1729.75 46.953C1729.75 50.028 1731.85 52.57 1734.72 53.308L1736.52 53.759C1737.22 53.923 1737.71 54.579 1737.71 55.317C1737.71 56.219 1737.01 56.916 1736.11 56.916C1735.41 56.916 1734.84 56.506 1734.59 55.85L1735.21 55.604C1735.33 55.973 1735.66 56.26 1736.11 56.26C1736.64 56.26 1737.05 55.85 1737.05 55.317C1737.05 54.866 1736.81 54.497 1736.36 54.374L1734.51 53.923C1731.39 53.144 1729.1 50.315 1729.1 46.953ZM1729.51 58.187L1730.12 57.9C1731.11 60.237 1733.4 61.836 1736.11 61.836C1739.72 61.836 1742.63 58.925 1742.63 55.317C1742.63 52.242 1740.54 49.7 1737.67 48.962L1735.86 48.511C1735.13 48.306 1734.67 47.691 1734.67 46.953C1734.67 46.051 1735.37 45.354 1736.27 45.354C1736.97 45.354 1737.54 45.805 1737.75 46.42L1737.18 46.666C1737.05 46.297 1736.68 46.01 1736.27 46.01C1735.74 46.01 1735.33 46.42 1735.33 46.953C1735.33 47.404 1735.58 47.773 1736.03 47.896L1737.87 48.347C1741.03 49.126 1743.28 51.955 1743.28 55.317C1743.28 59.294 1740.09 62.492 1736.11 62.492C1733.16 62.492 1730.62 60.729 1729.51 58.187ZM1761.87 50.11H1769.79V50.766H1761.87V62H1761.22V50.766H1756.3V62H1755.64V33.3H1772.74V33.956H1761.87V38.876H1772.74V39.532H1761.87V44.534H1769.79V45.19H1761.87V50.11ZM1756.3 39.532V44.534H1761.22V39.532H1756.3ZM1761.22 45.19H1756.3V50.11H1761.22V45.19ZM1756.3 33.956V38.876H1761.22V33.956H1756.3ZM1794.4 40.27V62H1793.75V55.809C1792.84 58.146 1791.08 60.073 1788.83 61.18V62H1788.17V61.508C1787.02 61.959 1785.79 62.205 1784.48 62.205C1779.03 62.205 1774.56 57.736 1774.56 52.283V40.27H1775.21V52.283C1775.21 57.367 1779.4 61.549 1784.48 61.549C1785.79 61.549 1787.02 61.262 1788.17 60.77V54.579C1787.39 55.809 1786.04 56.629 1784.48 56.629C1782.1 56.629 1780.13 54.661 1780.13 52.283V40.27H1780.79V52.283C1780.79 54.292 1782.47 55.973 1784.48 55.973C1786.49 55.973 1788.17 54.292 1788.17 52.283V40.27H1788.83V60.442C1791.74 58.884 1793.75 55.809 1793.75 52.283V40.27H1794.4ZM1798.59 62V40.27H1799.25V46.461C1800.15 44.124 1801.91 42.197 1804.17 41.09V40.27H1804.82V40.762C1805.97 40.311 1807.2 40.065 1808.51 40.065C1813.96 40.065 1818.43 44.534 1818.43 49.987V62H1817.78V49.987C1817.78 44.903 1813.6 40.721 1808.51 40.721C1807.2 40.721 1805.97 41.008 1804.82 41.5V47.691C1805.6 46.461 1806.95 45.641 1808.51 45.641C1810.89 45.641 1812.86 47.609 1812.86 49.987V62H1812.2V49.987C1812.2 47.978 1810.52 46.297 1808.51 46.297C1806.5 46.297 1804.82 47.978 1804.82 49.987V62H1804.17V41.828C1801.25 43.386 1799.25 46.461 1799.25 49.987V62H1798.59ZM1833.16 45.846V46.502H1831.97C1829.47 46.502 1827.34 48.634 1827.34 51.135C1827.34 53.636 1829.47 55.768 1831.97 55.768H1833.16V56.424H1831.97C1829.1 56.424 1826.68 54.005 1826.68 51.135C1826.68 48.265 1829.1 45.846 1831.97 45.846H1833.16ZM1833.16 40.926H1831.97C1826.35 40.926 1821.76 45.518 1821.76 51.135C1821.76 56.752 1826.35 61.344 1831.97 61.344H1833.16V62H1831.97C1825.98 62 1821.1 57.121 1821.1 51.135C1821.1 45.149 1825.98 40.27 1831.97 40.27H1833.16V40.926ZM1838.68 40.926H1835.44V40.27H1838.68V33.3H1839.33V40.27H1844.25V33.3H1844.91V40.27H1848.15V40.926H1844.91V45.846H1848.15V46.502H1844.91V62H1844.25V46.502H1839.33V62H1838.68V46.502H1835.44V45.846H1838.68V40.926ZM1844.25 40.926H1839.33V45.846H1844.25V40.926ZM1851.12 62V40.27H1851.78V62H1851.12ZM1857.35 40.27V62H1856.7V40.27H1857.35ZM1856.7 38.138V31.25H1857.35V38.138H1856.7ZM1851.78 31.25V38.138H1851.12V31.25H1851.78ZM1871.66 62.492C1865.38 62.492 1860.3 57.408 1860.3 51.135C1860.3 44.862 1865.38 39.778 1871.66 39.778C1877.93 39.778 1883.01 44.862 1883.01 51.135C1883.01 57.408 1877.93 62.492 1871.66 62.492ZM1871.66 61.836C1877.56 61.836 1882.36 57.039 1882.36 51.135C1882.36 45.231 1877.56 40.434 1871.66 40.434C1865.75 40.434 1860.96 45.231 1860.96 51.135C1860.96 57.039 1865.75 61.836 1871.66 61.836ZM1871.66 56.916C1868.46 56.916 1865.88 54.333 1865.88 51.135C1865.88 47.937 1868.46 45.354 1871.66 45.354C1874.86 45.354 1877.44 47.937 1877.44 51.135C1877.44 54.333 1874.86 56.916 1871.66 56.916ZM1871.66 56.26C1874.49 56.26 1876.78 53.964 1876.78 51.135C1876.78 48.306 1874.49 46.01 1871.66 46.01C1868.83 46.01 1866.53 48.306 1866.53 51.135C1866.53 53.964 1868.83 56.26 1871.66 56.26ZM1885.95 62V40.27H1886.61V46.461C1887.51 44.124 1889.28 42.197 1891.53 41.09V40.27H1892.19V40.762C1893.33 40.311 1894.56 40.065 1895.88 40.065C1901.33 40.065 1905.8 44.534 1905.8 49.987V62H1905.14V49.987C1905.14 44.903 1900.96 40.721 1895.88 40.721C1894.56 40.721 1893.33 41.008 1892.19 41.5V47.691C1892.97 46.461 1894.32 45.641 1895.88 45.641C1898.25 45.641 1900.22 47.609 1900.22 49.987V62H1899.57V49.987C1899.57 47.978 1897.89 46.297 1895.88 46.297C1893.87 46.297 1892.19 47.978 1892.19 49.987V62H1891.53V41.828C1888.62 43.386 1886.61 46.461 1886.61 49.987V62H1885.95ZM1908.67 46.953C1908.67 42.976 1911.87 39.778 1915.85 39.778C1918.8 39.778 1921.34 41.582 1922.45 44.124L1921.83 44.411C1920.85 42.074 1918.51 40.434 1915.85 40.434C1912.24 40.434 1909.33 43.345 1909.33 46.953C1909.33 50.028 1911.42 52.57 1914.29 53.308L1916.09 53.759C1916.79 53.923 1917.28 54.579 1917.28 55.317C1917.28 56.219 1916.59 56.916 1915.68 56.916C1914.99 56.916 1914.41 56.506 1914.17 55.85L1914.78 55.604C1914.91 55.973 1915.23 56.26 1915.68 56.26C1916.22 56.26 1916.63 55.85 1916.63 55.317C1916.63 54.866 1916.38 54.497 1915.93 54.374L1914.09 53.923C1910.97 53.144 1908.67 50.315 1908.67 46.953ZM1909.08 58.187L1909.7 57.9C1910.68 60.237 1912.98 61.836 1915.68 61.836C1919.29 61.836 1922.2 58.925 1922.2 55.317C1922.2 52.242 1920.11 49.7 1917.24 48.962L1915.44 48.511C1914.7 48.306 1914.25 47.691 1914.25 46.953C1914.25 46.051 1914.95 45.354 1915.85 45.354C1916.55 45.354 1917.12 45.805 1917.32 46.42L1916.75 46.666C1916.63 46.297 1916.26 46.01 1915.85 46.01C1915.32 46.01 1914.91 46.42 1914.91 46.953C1914.91 47.404 1915.15 47.773 1915.6 47.896L1917.45 48.347C1920.6 49.126 1922.86 51.955 1922.86 55.317C1922.86 59.294 1919.66 62.492 1915.68 62.492C1912.73 62.492 1910.19 60.729 1909.08 58.187ZM1953.46 61.959L1952.97 62.369L1950.34 59.499C1947.72 61.18 1944.77 62.492 1941.98 62.492C1937.51 62.492 1933.62 58.925 1933.62 54.456C1933.62 51.545 1935.38 48.757 1937.76 47.281L1938.78 46.625L1938.58 46.379C1937.35 44.985 1936.49 43.017 1936.49 40.967C1936.49 36.498 1940.14 32.808 1944.6 32.808C1949.07 32.808 1952.72 36.498 1952.72 40.967C1952.72 43.96 1950.88 46.379 1948.62 47.855L1948.38 48.019L1951.08 51.012C1952.39 49.782 1953.34 48.757 1953.62 48.429L1954.08 48.921C1953.79 49.208 1952.85 50.274 1951.49 51.504L1954.81 55.194C1956.13 54.046 1957.11 53.062 1957.56 52.611L1958.01 53.062C1957.56 53.513 1956.58 54.497 1955.26 55.686L1957.72 58.392L1957.23 58.802L1954.77 56.096C1953.38 57.285 1952.23 58.146 1950.92 59.13L1953.46 61.959ZM1939.23 47.158L1938.09 47.855C1935.83 49.249 1934.27 51.709 1934.27 54.456C1934.27 58.597 1937.84 61.836 1941.98 61.836C1944.6 61.836 1947.39 60.606 1949.89 59.007L1946.61 55.358C1945.01 56.383 1943.37 57.08 1941.98 57.08C1940.59 57.08 1939.19 55.85 1939.19 54.456C1939.19 53.39 1939.68 52.447 1940.87 51.75L1942.51 50.766L1939.23 47.158ZM1943.62 43.673L1942.8 42.771C1942.23 42.156 1942.06 41.541 1942.06 40.967C1942.06 39.573 1943.21 38.384 1944.6 38.384C1946 38.384 1947.15 39.573 1947.15 40.967C1947.15 41.951 1946.45 42.689 1945.67 43.181L1944.6 43.837L1947.93 47.527L1948.13 47.404C1950.43 46.01 1952.07 43.714 1952.07 40.967C1952.07 36.826 1948.75 33.464 1944.6 33.464C1940.46 33.464 1937.14 36.826 1937.14 40.967C1937.14 42.894 1937.88 44.657 1939.07 45.969L1939.36 46.297L1943.62 43.673ZM1941.98 56.424C1943.25 56.424 1944.73 55.768 1946.2 54.866L1942.96 51.258L1941.2 52.324C1940.22 52.939 1939.85 53.636 1939.85 54.456C1939.85 55.522 1940.91 56.424 1941.98 56.424ZM1942.72 40.967C1942.72 41.418 1942.88 41.91 1943.29 42.361L1944.15 43.345L1945.34 42.607C1946 42.197 1946.49 41.664 1946.49 40.967C1946.49 39.901 1945.67 39.04 1944.6 39.04C1943.54 39.04 1942.72 39.901 1942.72 40.967ZM1947.8 48.347L1943.54 50.93L1946.74 54.497C1948.09 53.554 1949.36 52.57 1950.59 51.463L1947.8 48.347ZM1952.72 56.957C1953.42 56.424 1953.79 56.096 1954.32 55.645L1951.04 51.914C1949.89 52.98 1948.54 54.046 1947.19 54.989L1950.47 58.638C1951.08 58.228 1952.23 57.326 1952.72 56.957ZM1947.35 47.855L1944.07 44.165L1939.81 46.789L1943.09 50.438L1947.35 47.855Z" fill="white"/>
</g>
<defs>
<clipPath id="clip0_0_26">
<rect width="1940" height="343" fill="white"/>
</clipPath>
</defs>
</svg>
